<svg xmlns="http://www.w3.org/2000/svg" width="125.938" height="42" viewBox="0 0 125.938 42">
  <g id="Group_4899" data-name="Group 4899" transform="translate(-1218.063 -3504)">
    <g id="download-doc-icon" transform="translate(1218.063 3504)">
      <path id="Path_1424" data-name="Path 1424" d="M41.414,36H37.526V30.923H32V36h-4.01l6.71,6,6.71-6Zm7.242-24.4H41.892a3.654,3.654,0,0,1-2.171-.807A2.827,2.827,0,0,1,38.97,8.88v-6.5H21.094a.2.2,0,0,0-.133.055.133.133,0,0,0-.065.13V32.55a.23.23,0,0,0,.058.126.168.168,0,0,0,.137.055h4.665a9.1,9.1,0,0,0-.8,2.365H20.327a1.946,1.946,0,0,1-1.343-.53,1.739,1.739,0,0,1-.554-1.275V1.818A1.765,1.765,0,0,1,18.984.543a1.956,1.956,0,0,1,1.343-.53h19.91A.43.43,0,0,1,40.37,0a.914.914,0,0,1,.572.212h.029a.381.381,0,0,1,.076.055L50.863,9.7a.861.861,0,0,1,.288.615,1.076,1.076,0,0,1-.029.205V33.292a1.748,1.748,0,0,1-.558,1.275,1.946,1.946,0,0,1-1.343.53H44.193a8.966,8.966,0,0,0-.8-2.365h5.065c.058,0,.058-.027.09-.055s.108-.089.108-.126c0-8.015,0-12.934,0-20.946Zm-7.44-2.912V2.775l7.016,6.747H42.09a.944.944,0,0,1-.619-.243.805.805,0,0,1-.256-.588Z" transform="translate(-13.781)" fill="#fff" fill-rule="evenodd"/>
      <path id="Path_1425" data-name="Path 1425" d="M0,38.51H22.428V49.284H0Z" transform="translate(0 -23.51)" fill="#fff" fill-rule="evenodd"/>
      <path id="Path_1426" data-name="Path 1426" d="M8.32,48.178h2.654a3.183,3.183,0,0,1,1.266.212,2.081,2.081,0,0,1,.8.608,2.555,2.555,0,0,1,.457.923,4.207,4.207,0,0,1,.144,1.115,3.84,3.84,0,0,1-.212,1.43,2.359,2.359,0,0,1-.585.853,1.9,1.9,0,0,1-.8.457,4.21,4.21,0,0,1-1.065.156H8.32V48.178Zm1.783,1.3v3.141h.439a1.9,1.9,0,0,0,.8-.124.859.859,0,0,0,.371-.431,2.672,2.672,0,0,0,.134-1,1.924,1.924,0,0,0-.3-1.251,1.272,1.272,0,0,0-1-.338H10.1Zm4.165,1.577a2.727,2.727,0,0,1,2.984-2.977,3.035,3.035,0,0,1,2.222.769,2.9,2.9,0,0,1,.779,2.159,3.531,3.531,0,0,1-.341,1.652,2.439,2.439,0,0,1-.986,1,3.27,3.27,0,0,1-1.607.358,3.741,3.741,0,0,1-1.617-.308,2.441,2.441,0,0,1-1.039-.981,3.232,3.232,0,0,1-.4-1.677Zm1.783.005a1.922,1.922,0,0,0,.325,1.251,1.24,1.24,0,0,0,1.778.01,2.109,2.109,0,0,0,.315-1.337,1.77,1.77,0,0,0-.33-1.186,1.131,1.131,0,0,0-.9-.376,1.083,1.083,0,0,0-.868.381,1.924,1.924,0,0,0-.325,1.256Zm8.932.515,1.566.469a2.864,2.864,0,0,1-.5,1.095,2.145,2.145,0,0,1-.843.663,3.17,3.17,0,0,1-1.279.222,3.733,3.733,0,0,1-1.541-.272,2.426,2.426,0,0,1-1.029-.959,3.223,3.223,0,0,1-.434-1.756,2.977,2.977,0,0,1,.762-2.192,2.92,2.92,0,0,1,2.159-.767,2.95,2.95,0,0,1,1.718.439,2.584,2.584,0,0,1,.928,1.35l-1.574.346a1.326,1.326,0,0,0-.174-.381,1.04,1.04,0,0,0-.368-.313,1.068,1.068,0,0,0-.484-.111,1.049,1.049,0,0,0-.931.484,2.042,2.042,0,0,0-.245,1.13,2.121,2.121,0,0,0,.293,1.309,1.159,1.159,0,0,0,1.594.068,1.745,1.745,0,0,0,.378-.825Z" transform="translate(-6.221 -30.624)" fill="#118c3c"/>
    </g>
    <g id="download-mp4-icon" transform="translate(1262.346 3504)">
      <path id="Path_1427" data-name="Path 1427" d="M41.415,36H37.528V30.924H32v5.082h-4.01L34.7,42l6.713-6Zm7.242-24.4H41.893a3.654,3.654,0,0,1-2.17-.807,2.827,2.827,0,0,1-.752-1.917v-6.5H21.093a.2.2,0,0,0-.133.055.133.133,0,0,0-.065.13V32.547a.23.23,0,0,0,.058.126.168.168,0,0,0,.137.055h4.665a9.1,9.1,0,0,0-.8,2.365H20.327a1.93,1.93,0,0,1-1.343-.53,1.745,1.745,0,0,1-.554-1.275V1.818A1.765,1.765,0,0,1,18.984.543a1.956,1.956,0,0,1,1.343-.53H40.238A.43.43,0,0,1,40.371,0a.914.914,0,0,1,.572.212h.029a.381.381,0,0,1,.076.055L50.863,9.7a.861.861,0,0,1,.288.615,1.076,1.076,0,0,1-.029.205V33.289a1.748,1.748,0,0,1-.558,1.275,1.939,1.939,0,0,1-1.343.53H44.193a8.965,8.965,0,0,0-.8-2.365h5.064c.058,0,.058-.027.09-.055s.108-.089.108-.126c0-8.011,0-12.929,0-20.944ZM41.213,8.691V2.775l7.015,6.747h-6.14a.944.944,0,0,1-.619-.243.813.813,0,0,1-.256-.588Z" transform="translate(-13.781)" fill="#fff" fill-rule="evenodd"/>
      <path id="Path_1428" data-name="Path 1428" d="M0,38.52H22.428V49.294H0Z" transform="translate(0 -23.518)" fill="#fff" fill-rule="evenodd"/>
      <path id="Path_1429" data-name="Path 1429" d="M8.88,48.378h2.356l.9,3.5.9-3.5h2.343V54.13H13.918V49.743L12.79,54.127H11.466l-1.125-4.384v4.384H8.88V48.378Zm7.545,0h2.969a2.034,2.034,0,0,1,1.453.459,1.721,1.721,0,0,1,.482,1.309,1.771,1.771,0,0,1-.527,1.362A2.288,2.288,0,0,1,19.192,52h-.979V54.13H16.422V48.378Zm1.791,2.457h.439a1.149,1.149,0,0,0,.732-.179A.569.569,0,0,0,19.6,50.2a.628.628,0,0,0-.184-.459.95.95,0,0,0-.686-.189h-.512v1.284Zm6.491,2.217H21.785V51.738l2.921-3.458H26.1v3.534h.726V53.05H26.1v1.077H24.706V53.053Zm0-1.239V50l-1.544,1.814h1.544Z" transform="translate(-6.64 -30.774)" fill="#118c3c"/>
    </g>
    <g id="download-pdf-icon" transform="translate(1306.631 3504)">
      <path id="Path_1430" data-name="Path 1430" d="M41.414,36H37.526V30.923H32V36H27.991l6.71,6,6.713-6Zm7.242-24.4H41.892a3.654,3.654,0,0,1-2.171-.807A2.827,2.827,0,0,1,38.97,8.88v-6.5H21.094a.2.2,0,0,0-.133.055.133.133,0,0,0-.065.13V32.547a.23.23,0,0,0,.058.126.168.168,0,0,0,.137.055h4.665a9.074,9.074,0,0,0-.8,2.362H20.327a1.93,1.93,0,0,1-1.343-.53,1.739,1.739,0,0,1-.554-1.275V1.818A1.765,1.765,0,0,1,18.984.543a1.956,1.956,0,0,1,1.343-.53h19.91A.43.43,0,0,1,40.37,0a.914.914,0,0,1,.572.212h.029a.381.381,0,0,1,.076.055L50.863,9.7a.861.861,0,0,1,.288.615,1.076,1.076,0,0,1-.029.205V33.288a1.748,1.748,0,0,1-.558,1.275,1.946,1.946,0,0,1-1.343.53H44.193a8.9,8.9,0,0,0-.8-2.362h5.065c.058,0,.058-.031.09-.055s.108-.089.108-.126c0-8.015,0-12.934,0-20.946ZM41.212,8.692V2.775l7.016,6.747H42.087a.944.944,0,0,1-.619-.243.825.825,0,0,1-.256-.588Z" transform="translate(-13.781)" fill="#fff" fill-rule="evenodd"/>
      <path id="Path_1431" data-name="Path 1431" d="M0,38.51H22.425V49.284H0Z" transform="translate(0 -23.51)" fill="#fff" fill-rule="evenodd"/>
      <path id="Path_1432" data-name="Path 1432" d="M12.063,48.62h2.969a2.034,2.034,0,0,1,1.45.459,1.725,1.725,0,0,1,.482,1.307,1.766,1.766,0,0,1-.527,1.362,2.281,2.281,0,0,1-1.607.489h-.976v2.134H12.06V48.62Zm1.794,2.452h.436a1.1,1.1,0,0,0,.724-.179.573.573,0,0,0,.209-.457.632.632,0,0,0-.182-.459.935.935,0,0,0-.681-.189h-.51v1.284Zm3.988-2.452H20.5a3.183,3.183,0,0,1,1.266.212,2.073,2.073,0,0,1,.8.608,2.555,2.555,0,0,1,.457.923,4.313,4.313,0,0,1,.141,1.115,3.831,3.831,0,0,1-.212,1.43,2.359,2.359,0,0,1-.585.853,1.9,1.9,0,0,1-.8.457,4.21,4.21,0,0,1-1.065.156H17.844V48.62Zm1.783,1.3v3.141h.436a1.843,1.843,0,0,0,.8-.124.849.849,0,0,0,.371-.431,2.716,2.716,0,0,0,.134-1,1.932,1.932,0,0,0-.3-1.251,1.275,1.275,0,0,0-.994-.338h-.446Zm4.4-1.3h4.414v1.236H25.818v1h2.237v1.16H25.818v2.351H24.024V48.62Z" transform="translate(-9.018 -31.009)" fill="#118c3c"/>
    </g>
  </g>
</svg>
