<svg id="Logo" xmlns="http://www.w3.org/2000/svg" xmlns:xlink="http://www.w3.org/1999/xlink" width="201" height="124.277" viewBox="0 0 201 124.277">
  <defs>
    <clipPath id="clip-path">
      <rect id="Rectangle_464" data-name="Rectangle 464" width="201" height="124.277" fill="#fff"/>
    </clipPath>
  </defs>
  <g id="Group_339" data-name="Group 339" clip-path="url(#clip-path)">
    <path id="Path_737" data-name="Path 737" d="M165.749,163.769h1c0,.092-.263.392-.792.9l-.7-.082h-.123l-.882.741c.061-.6.223-.9.488-.9.406,0,.609-.155.609-.466l.212.082h.182v-.274Zm-7.734-18.922c0-.092.071-.147.212-.165v.165Zm56.165,12.1-.423.186v-.094l.372-.186.053.094Zm-6.938,5.412a2.6,2.6,0,0,1-.372.466c-.035,0-.053-.047-.053-.141v-.233a1.017,1.017,0,0,0,.212-.047.99.99,0,0,1,.212-.047Zm6.2-10.779a.421.421,0,0,0-.106.233.285.285,0,0,1-.319-.327.682.682,0,0,0,.423.094Zm-2.543-.56h-.319v-.094h.319Zm2.012,2.24h-.266v-.141h.266Zm-2.543-2.146h-.848v-.141h.848Zm.266.607h-.159v-.233h.159Zm-.635-.141h-.212v-.141H210Zm2.065,2.052-.106.094-.423-.233.106-.141Zm-3.494-2.426h-.212v-.141h.212Zm2.49,2.567h-.106l-.159-.186.159-.047Zm-1.164-.466-.319.186-.106-.094.319-.186Zm1.27,2.193H211v-.28h.159Zm1.483,2.567a2,2,0,0,1-.9-.374.449.449,0,0,0,.266.141.165.165,0,0,0,.106-.047c-.106-.094-.176-.141-.212-.141a.468.468,0,0,0,.319-.094.182.182,0,0,1-.106-.186.136.136,0,0,1,.053-.094,2.489,2.489,0,0,0,.212.4c.106.172.194.3.266.4ZM207.3,154.1c0,.094-.088.233-.265.421a.489.489,0,0,1-.266-.116.489.489,0,0,0-.266-.116h.106a.375.375,0,0,1,.319.141l.372-.327Zm5.667,7.605H212.8l-.372-.839.106-.047.423.886Zm2.859,9.658-.106.047-.476-.513.106-.094Zm-10.591-8.819-.266.327-.106-.094.212-.28Zm3.29-15.491h0ZM204.277,164.6l-.106.233-.106-.047.106-.233Zm-1.908-.513a.75.75,0,0,1-.319.513.632.632,0,0,0-.476-.233h.212a.672.672,0,0,1,.265.047c.035-.031.088-.086.159-.163s.125-.133.159-.163Zm13.638,7.548-.029-.037h.159a1.412,1.412,0,0,1,.27.037Zm9.19-4.832q.414,1.311,1.129,1.473a26.619,26.619,0,0,0,1.957,2.937,9.406,9.406,0,0,0-1.223.245.941.941,0,0,1-.368-.123q-.956.153-1.434.21a.472.472,0,0,1,.3-.112,1.05,1.05,0,0,0,.09-.476v-.476c.629-.547.941-.95.941-1.209a1.339,1.339,0,0,0-.37-.67c-.245-.3-.415-.453-.506-.453a2.135,2.135,0,0,0-.37.065,2.136,2.136,0,0,1-.37.065.713.713,0,0,1-.323-.174,2.373,2.373,0,0,0-.323-.216c-.431-.143-.77-.259-1.015-.345q.187-.086,1.495-.562a2.448,2.448,0,0,0,.386-.182Zm18.346-1.381q-.15.355-.3.355h-.127a.456.456,0,0,0-.006-.076l.435-.28Zm33.167,1.068h.278a1.147,1.147,0,0,0,.092.361h-.186c-.092,0-.155-.08-.186-.241v-.12Zm-1.411-8.143h.347c0,.161-.061.241-.186.241H275.3Zm-8.841-2.8h.069v.361c0,.161-.053.241-.161.241Zm8.032-2.653.186.09h.161l.186-.09c0,.061.031.09.092.09-.139.321-.255.482-.347.482h-.464v-.12A.878.878,0,0,0,274.491,152.892Zm-8.588-.935a.211.211,0,0,1,.186-.241h.092a1.147,1.147,0,0,0,.092.361.9.9,0,0,1-.092.331c-.092,0-.186-.151-.278-.451m1.875-6.754.464-.12v.241a.736.736,0,0,0-.278.09C267.872,145.413,267.809,145.343,267.778,145.2Zm-7.189,16.379q1.124,1.14,1.123,1.775h.255a1.147,1.147,0,0,1,.092-.361,2.614,2.614,0,0,0,.995.361,2.583,2.583,0,0,0,.439,1.056v.12l-.625.815v.21c.294,0,.439.392.439,1.176h-.533a.569.569,0,0,1-.1-.018,1.987,1.987,0,0,0-.876-1.317h-.127q-.224,0-.509.762l-.253-.127h-.635a1.78,1.78,0,0,1-1.144.382l-.253-.127.253-.382v-.127a1,1,0,0,1-.382-.127,4.7,4.7,0,0,0-1.27.253l-.127-.253v-.127h.89a.223.223,0,0,0,.253-.253l-.253-.382a.987.987,0,0,0,.382-.127l-.253-.635c.339,0,.509-.084.509-.253l-.127-.253a.987.987,0,0,0-.382.127.933.933,0,0,1-.509-.253h-.253l-.253.127a1.13,1.13,0,0,0-.635-.89,3.713,3.713,0,0,1,1.779.635h.635c0,.253.084.382.253.382h.127c0-.423.127-.635.382-.635v-.253h-1.017v-.127a1,1,0,0,0,.382-.127c.233-.339.445-.509.635-.509v-.253l-.127-.253a.112.112,0,0,0,.127-.127l.635.127h.055Zm-90.467,9.987a.474.474,0,0,0,.029.067H170.1c.006-.02.014-.043.02-.067Zm.114-.633a.644.644,0,0,0-.1.184l-.061-.082q.123,0,.123-.11a.119.119,0,0,1,.039.006Zm29.654-2.5.018-.039.1.051-.123-.012Zm-.184,2.773h-.161v-.141l.161.141m1.109-1.846q.919.034.919.227a2.521,2.521,0,0,1-.423.186,2.475,2.475,0,0,0,.662-.094l.345-.094a.548.548,0,0,1,.266.094,1.247,1.247,0,0,1-1.007.654h.688a7.237,7.237,0,0,0,.954-.747.129.129,0,0,1,.053.094,2.938,2.938,0,0,1-.529.607,9.171,9.171,0,0,1,1.007-.466c.035,0,.053.016.053.047a.725.725,0,0,0-.053.186,2.437,2.437,0,0,0,.715-.3,1.891,1.891,0,0,1,.556-.257h.159a.165.165,0,0,1,.106.047,6.762,6.762,0,0,1-1.8,1.119.616.616,0,0,1-.292-.069.513.513,0,0,0-.239-.069,2.049,2.049,0,0,0-.609.327,1.876,1.876,0,0,1-.635.327c-.088,0-.255.016-.5.047h-.423a2.371,2.371,0,0,1-.848-.141,2.572,2.572,0,0,1-.388-.323V170.6a2.479,2.479,0,0,0,.484-.733,7.354,7.354,0,0,1-.241-1.223l.084-.167a4.063,4.063,0,0,0,.435.161,2.7,2.7,0,0,1,.529.21c-.106.094-.159.125-.159.094h-.529a2.087,2.087,0,0,1,.954.327,1.756,1.756,0,0,1-.284.1Zm17.39,1.44h-.159a.545.545,0,0,1-.372-.141c.247-.031.582-.094,1.007-.186h-.106a.565.565,0,0,1-.372-.094,2.951,2.951,0,0,0,.482-.286c.188.139.355.266.5.384v.216a17.367,17.367,0,0,0-1.885.562c.125.141.243.265.353.374h-1.011a2.288,2.288,0,0,1-.774-.69.165.165,0,0,1,.106-.047.225.225,0,0,1,.133.069,2.154,2.154,0,0,0,.58.19,3.175,3.175,0,0,1,.294-.212.437.437,0,0,0,.372.141h.106v-.094c0-.125.125-.186.372-.186h.37Zm-14.19-2.775a.829.829,0,0,0,.315-.233c.141-.172.282-.349.423-.537a.379.379,0,0,1,.053.186c0-.031-.088.094-.266.374l.688-.56a.379.379,0,0,1,.053.186v.047c.212-.186.547-.451,1.007-.792a2.456,2.456,0,0,1-2.6,1.681l-1.164-.233a.52.52,0,0,0-.239.069.513.513,0,0,1-.239.069c-.071,0-.106-.022-.106-.069s-.035-.069-.106-.069a1.123,1.123,0,0,0-.319.069,1.109,1.109,0,0,1-.319.069,1.625,1.625,0,0,1-.58-.1,1.637,1.637,0,0,0-.233-.521.215.215,0,0,0,.241-.245,1.423,1.423,0,0,0-.241-.733,5.918,5.918,0,0,0-1.209.245l-.121-.245q.846-.916.846-1.1c-.061-.408-.182-.611-.364-.611l.12-.611a3.21,3.21,0,0,0-.484-.611v-.123a3.316,3.316,0,0,0,.6-.856l-.12-.245a1.388,1.388,0,0,0-.725.245c-.141,0-.223-.082-.241-.245a1.407,1.407,0,0,1,.364-.856v-.856c0-.123-.2-.245-.6-.368a1.182,1.182,0,0,0-1.089-.611l.12-.245v-.611l-.12-.245-.6.49a14.888,14.888,0,0,0,.846-2.569c-.725-.429-1.089-.713-1.089-.856l-.6,1.1v-.611l.364-1.223v-.49c0-.408-.12-.651-.364-.733h-.121c-.484.511-.725.876-.725,1.1h-.241V154.7a1.963,1.963,0,0,1,.484-1.1v-.49c0-.143-.08-.225-.241-.245l.12-.611v-.245h-.12l-.484.49q0-1.467-.6-1.468v-.368q-.3-.49-.484-.49c-.1-.733-.223-1.1-.364-1.1h-.484c-.4,0-.645.123-.725.368-.141,0-.223-.082-.241-.245a2.1,2.1,0,0,1,.364-.978c-.12-.245-.241-.368-.364-.368q-.273-1.222-.484-1.223h-.12q-.423,1.345-.725,1.346a8.834,8.834,0,0,1,.6,1.711v.123q-.15,0-.6-.856c-.241.123-.364.245-.364.368v.245c.4.368.6.611.6.733h-.6c-.08,0-.2.163-.364.49-.1.733-.223,1.1-.364,1.1a6.262,6.262,0,0,1-1.089-.123c-.141,0-.223.082-.241.245l1.209,1.1h-1.089v.245c.4,0,.645.123.725.368v1.468a.215.215,0,0,1-.241.245,6.586,6.586,0,0,1-.846-.856h-.12v.49a1.423,1.423,0,0,1,.364.856h-.12a9.237,9.237,0,0,1-.966-.245c-.141,0-.223.082-.241.245v.123a.215.215,0,0,0,.241.245.964.964,0,0,1-.12.368c.161.327.364.49.6.49q0,.184-.846.49c.807.551,1.209.876,1.209.978v.856h-.241a6.384,6.384,0,0,0-1.33-1.1c-.4.061-.6.184-.6.368l.966,1.1a.927.927,0,0,0-.364.123l-.725-.123-.241.123c.443.49.766.733.966.733q0,.123-.846.733l.364.611-.12.245q.242,1.1.241,1.223l-.12.245a1.929,1.929,0,0,1-.846-.245l-.241.123a10.253,10.253,0,0,1,.846,1.346h-.364a.927.927,0,0,0-.364.123l.966,1.468h-.12l-.364-.245c-.4.306-.6.511-.6.611v.123c0,.163.241.245.725.245l-1.089.733v.123q.726.092.725.611-.3.49-.484.49l.12.611v.856l.241.368-.108.545h-1.44a24.634,24.634,0,0,1-3.021-1.691,1.619,1.619,0,0,1,1.064-.519q.1,0,1.242.288t1.242.288c.237,0,.355-.153.355-.462,0-.27-.237-.537-.711-.807a10.889,10.889,0,0,1-.964-.576.53.53,0,0,1,.076-.2l.076-.145a.46.46,0,0,0-.506-.462c-.1,0-.178.067-.229.2s-.194.2-.431.2h-.2a.187.187,0,0,1-.151-.057c.135-.384.253-.788.355-1.209a2.171,2.171,0,0,1-.711-.864,1.02,1.02,0,0,0,.051-.288,1.625,1.625,0,0,0-.406-.98,3.7,3.7,0,0,1-.406-.692,1.432,1.432,0,0,1-.151-.519,3.44,3.44,0,0,1-.862-.633.333.333,0,0,1,.3-.174h.151a2.119,2.119,0,0,0,.151-.75.556.556,0,0,0-.051-.231,3.193,3.193,0,0,1-.811-.807l.66-1.787v-.519a3.841,3.841,0,0,1-1.04-.721,1.631,1.631,0,0,1-.127-.778,1.823,1.823,0,0,1,.051-.288v-.345q0-3.226-.811-4.034-.812,2.478-1.217,3.746a5.458,5.458,0,0,1-.913,1.095c.1.153.261.4.482.75s.38.615.482.807a2.257,2.257,0,0,0-.506.462l.76,1.5a1,1,0,0,1-.964.462h-.406q.456,2.478.455,2.42v.114a12.552,12.552,0,0,1-1.724.345c-.406.078-.641.231-.711.462a24.8,24.8,0,0,0,1.977,1.844c-.27.114-.676.27-1.217.462s-.946.327-1.217.4v.114c0,.192.151.423.455.692a3.978,3.978,0,0,1,.66.4,9.306,9.306,0,0,0-.862,1.728,1.4,1.4,0,0,1-.2.353v-.49h-.092l-.3.192a4.18,4.18,0,0,1-.233.58h-.543a2.875,2.875,0,0,0-.946.129c-.133-.016-.2-.069-.2-.159v-.274l.3.165h.123a6.307,6.307,0,0,0,.4-1.344l.182.082h.123l-.123-.165c0-.129.1-.192.3-.192l-.182-1.1a.6.6,0,0,0,.092-.274h-.3a.958.958,0,0,0-.488.9l-2.01.9.182.274c0,.129-.263.219-.792.274a1.278,1.278,0,0,1-.212-.713v-.082c0-.11.071-.174.212-.192l.092.439h.212c0-.237.1-.357.3-.357q.4,0,.4-1.07l.488.631.212-.11-.092-.439v-.082h.488c.143,0,.212-.063.212-.192l-.123-.192-1,.11v-.192h.212a1.622,1.622,0,0,1,.609-.274c0-.366.163-.549.488-.549v-.165l-.182-.274v-.082l.488.082v-.274l-.182.082v-.274a.949.949,0,0,0,.4-.082c0-.11-.133-.165-.4-.165l.182-.274v-.11c0-.092-.061-.147-.182-.165h-.123c-.1.476-.233.713-.4.713h-.092v-.357a1.382,1.382,0,0,1,.3-.713c-.123-.439-.294-.658-.517-.658-.082.366-.212.549-.4.549l.212.274c-.468.255-.7.41-.7.466l.182.274v.165a.974.974,0,0,0-.3.082,5.119,5.119,0,0,1-1.1-.165v-.082l.212-.274q.64,0,.882-1.646.123,0,.123.11c.082,0,.212-.339.4-1.015,0-.549-.2-.85-.609-.9h-.092c0,.915-.3,1.37-.913,1.37,0-.11-.071-.174-.212-.192l-.182.082q0,.659-.7.658l-.212-.11.092-.165.212.082h.092v-.192l-.4-.082c.345-.274.517-.484.517-.631l.182.082.212-.082-.123-.466.731-.357a.587.587,0,0,0-.123-.357l.212-.274-.092-.192-.3.192h-.212a.6.6,0,0,0,.212-.357h.182l.212.082c0-.055.031-.082.092-.082,0-.055-.031-.082-.092-.082a1.025,1.025,0,0,1,.182-.466v-.082h-.182a3.024,3.024,0,0,1-1.521,1.178h-.092l-.092-.466q0-.138,1.187-.823l-.092-.439h.092c.345-.366.578-.549.7-.549-.041-.421-.172-.631-.4-.631v-.192c.468,0,.7-.118.7-.357-.061,0-.092-.027-.092-.082l-.212.082h-.092v-.165l.212-.274c0-.11-.071-.174-.212-.192h-.092c-.366.31-.6.466-.7.466q0-.11-.123-.11l.123-.439-.123-.192q-.092,0-.092.11a2.161,2.161,0,0,1-.488-.384c-.2.092-.3.184-.3.274v.11c0,.11.1.165.3.165v.192h-.823c0-.147-.163-.329-.488-.549v-.357h.092l.3.165h.092c0-.347.1-.521.3-.521,0-.165-.133-.255-.4-.274l.092-.192v-.466h-.3v-.082l.3-.357c-.1-.184-.2-.274-.3-.274-.123,0-.182.237-.182.713l-.212-.082h-.212a1.407,1.407,0,0,0,.212.549.785.785,0,0,0-.488.192h-.123v-.11l.123-.165c-.1,0-.2-.129-.3-.384v-.082l.182.082.212-.082a.753.753,0,0,0-.092-.274c0-.055.092-.082.274-.082v-.192h-.274c.3-.347.5-.521.578-.521l-.092-.549h-.212l-.488.082a.753.753,0,0,1,.092-.274l-.092-.9.092-.357a1.509,1.509,0,0,1-.182-.549h-.212a.2.2,0,0,0-.212.192l-.274-.192c-.143.037-.284.192-.427.466l.123.165c0,.074-.071.11-.212.11l.092.165-.182.274q-.7-.631-1-.631c-.143.274-.274.421-.4.439a1.1,1.1,0,0,0,.182.549h-.3v.11l.123.165c-.082,0-.123.027-.123.082h-.092c-.143-.347-.315-.521-.517-.521v-.11h.212v-.165l-.3-.357v-.384c.2.092.3.184.3.274.2,0,.3-.184.3-.549h.092v.466h.3v-.549l-.092-.165q.092,0,.092-.11l.4.274h.212v-.439h-.3v-.192c.406,0,.609-.063.609-.192v-.082a.675.675,0,0,0-.609-.357c.3-.366.506-.549.609-.549,0-.055-.031-.082-.092-.082a3.443,3.443,0,0,1,.182-.741c-.1-.184-.2-.274-.3-.274l.123-.794c-.123-.184-.223-.274-.3-.274h-.3v.823c0,.092-.133.174-.4.247l.092.192h-.092q-.426.548-.731.549v.082l.123.466-.4.274h-.123v-.11a2.847,2.847,0,0,1,.212-.794l-.092-.192c.263,0,.4-.063.4-.192v-.165h-.517v-.274c.406,0,.609-.063.609-.192l-.212-.274v-.082c.123-.184.223-.274.3-.274a2.085,2.085,0,0,1,.7-1.344c-.1-.184-.192-.274-.274-.274l-.731.439H161a1.743,1.743,0,0,1,.3-.631v-.082c0-.11-.071-.174-.212-.192h-.182a.589.589,0,0,1-.092.274c-.2-.092-.3-.184-.3-.274s.133-.184.4-.274a.722.722,0,0,0-.092-.357,1.478,1.478,0,0,0,.274-.713c-.386-.255-.578-.439-.578-.549-.082,0-.123.027-.123.082a.778.778,0,0,0-.4-.165c.182-.4.355-.613.517-.631,0-.11-.071-.174-.212-.192h-.488v-.274H159.6v.192h-.4l-.3-.192h-.123q0,.986.427.986v.11l-.123.165-.488-.082a.717.717,0,0,0-.4.192l-.3-.192h-.123a4.87,4.87,0,0,0,.3.986v.11l-.182-.11a.2.2,0,0,0-.212.192v.082l.4.549v.082l-.182.274v.082a.717.717,0,0,1,.4.192c0,.129-.071.192-.212.192h-.182c-.1,0-.274-.21-.517-.631l-.3.165h-.092a.189.189,0,0,1-.212-.165l.123-.466-.212-.082H156.5l.092.9c0,.11-.071.165-.212.165l.123.192v.357c-.061,0-.233-.147-.517-.439a.189.189,0,0,0-.212.165v.192c0,.184.143.274.427.274v.439l.092.192.212-.082h.274l-.092.165v.549H156.5v.192h.274a3.056,3.056,0,0,1,.823-.466h.092v.357q-1.1.355-1.1.466l.092.165.212-.082h.3c.325,0,.517.092.578.274v.082a.737.737,0,0,1-.274-.082.2.2,0,0,0-.212.192v.165c0,.129.071.192.212.192-.123.184-.223.274-.3.274h-.212l.092-.192c0-.092-.061-.147-.182-.165h-.123l-.182.082a1.033,1.033,0,0,0,.3.549v.165h-.123c-.263-.129-.4-.274-.4-.439a.83.83,0,0,1-.882-.823v-.274a.988.988,0,0,0-.731.466.865.865,0,0,0,.212.521c0,.074-.1.11-.3.11a1.294,1.294,0,0,0,.212.713c.061,0,.092-.027.092-.082.143,0,.212.055.212.165v.192c0,.129-.071.192-.212.192l.092.357h.3l.212-.082a.694.694,0,0,0,.182.439.785.785,0,0,0-.488.192.753.753,0,0,0,.092.274.588.588,0,0,1-.092.247.949.949,0,0,0-.4-.082c-.223-.384-.427-.594-.609-.631a4.418,4.418,0,0,1,.092-.713l-.092-.192-.212.082c0-.347-.061-.521-.182-.521a.19.19,0,0,0-.212.165l.212.274v.082a.63.63,0,0,0-.3.11.945.945,0,0,1,.182.521l-.182.274c.1.184.2.274.3.274v-.165h.092v.082l-.212.439c0,.129.071.192.212.192h.092v-.192h.123v.11l-.123.165c.182.4.355.613.517.631l-.092.192v.357a.737.737,0,0,0,.274-.082c.082,0,.153.092.212.274,0,.055-.071.082-.212.082v.082l.123.192c-.2,0-.3.155-.3.466-.345-.31-.578-.466-.7-.466a.722.722,0,0,1,.092-.357c-.082-.31-.182-.466-.3-.466a.792.792,0,0,0-.488.741v.274l.092.165h-.212v.192c0,.11.071.165.212.165a.589.589,0,0,1-.092.274q0,.493.792.549a1.835,1.835,0,0,0-.3.741h.092l.212-.11V157q-.61,0-.609-.631h-.182v.165h-.212q-.518-1.562-.913-1.7a.172.172,0,0,0-.182.165v.082l.092.192-.3.192c0,.11.071.165.212.165l-.123.466.212.274v.082c0,.165-.233.284-.7.357l-.3-.165a.589.589,0,0,1,.092-.274c-.1-.237-.2-.357-.3-.357h-.092c-.143,0-.243.237-.3.713.143,0,.345.184.609.549a1.68,1.68,0,0,0-.7.082c0,.129.061.192.182.192h.427l.182-.11v.466c0,.11-.061.165-.182.165h-.123a.588.588,0,0,0-.092-.247,2.012,2.012,0,0,1-1,.357,3.411,3.411,0,0,0-.3-.9.172.172,0,0,0-.182.165v.11l.182.274h-.3v.165a.828.828,0,0,1,.4.082l-.274.549a5.135,5.135,0,0,1,.488,2l-.3.549c0,.184.2.274.609.274v.082l-.517.082v.274l-.092.192c0,.055.1.082.3.082v.082c0,.129-.071.192-.212.192l.427.439-.123,1.1c0,.055-.061.082-.182.082v.192a.58.58,0,0,1,.609.631l-.731-.082-.182.082c0,.129.061.192.182.192l.212-.11a.712.712,0,0,0,.212.384h-.427c-.1,0-.163-.063-.182-.192a1.24,1.24,0,0,1-.609.192h-.092a2.326,2.326,0,0,0,.488-.466c-.325-.255-.488-.4-.488-.439a.771.771,0,0,0-.3.082.2.2,0,0,1-.212-.192c-.2.092-.3.184-.3.274,0,.129.2.192.609.192v.274c0,.092-.163.184-.488.274,0,.11.133.165.4.165v.823l.092.165.4-.247a.5.5,0,0,0,.123.247.63.63,0,0,0-.3.11l.4.357c.143,0,.212-.118.212-.357h.092a2.415,2.415,0,0,0,.182.713c.284.055.427.174.427.357h.182V167.5h.123v.549a6.214,6.214,0,0,1-2.01-.823c-.506-.658-.813-.986-.913-.986h-.092l.092.165v.082h-.4a2.984,2.984,0,0,0-.7-.439,1.24,1.24,0,0,0-.609.192,4.863,4.863,0,0,1,.792,1.426l-.092.192.092.439-.092.192c.061,0,.092.027.092.082a.771.771,0,0,0,.3-.082h.212c-.143.274-.284.429-.427.466.123.165.223.247.3.247l.212-.082.092.192v.082c0,.129-.061.192-.182.192,0,.366.061.549.182.549h.517v.165l-.3.9a.68.68,0,0,1,.488.274.934.934,0,0,1-.045.159h-3.027a71,71,0,0,1,21.221-60.556q.922-.885,1.881-1.738A67.734,67.734,0,0,1,263.4,114.9a71.172,71.172,0,0,1,17.515,56.735h-3.931q-.355-.3-.355-.38v-.09h.069a7.075,7.075,0,0,1,.995.09h.092c0-.041-.061-.312-.186-.815a.193.193,0,0,1,.186-.21c0,.382.061.574.186.574h.161c0-.241.061-.361.186-.361v.241h.278v-.241h.069v.241h.464c.308-.462.517-.694.625-.694a.513.513,0,0,0,.347.12h.37l.161-.12-.161-.451A.926.926,0,0,0,281,168.6v-.12a8.493,8.493,0,0,1-1.714.694h-.069v-.694l-.186-.361c.169,0,.255-.069.255-.21q0-.331-.786-.482c-.186.12-.278.241-.278.361a3.953,3.953,0,0,1-.811-.241c0-.08.031-.12.092-.12l-.092-.574v-.12l.464.12h.439c.123,0,.186-.12.186-.361q0-.3.786-.451l.186.121c.061-.4.186-.6.37-.6v-.331q0-1.3-.278-1.3h-.092a2.9,2.9,0,0,1-.439.6h-.092c-.061,0-.208-.241-.439-.723h-.464c-.261.321-.5.482-.717.482h-.069a.7.7,0,0,1-.717-.574.5.5,0,0,0,.255-.12l.092.21c.123,0,.186-.069.186-.21v-.241a1.521,1.521,0,0,0-.186-.694,2.848,2.848,0,0,0,.186-.815h.625q.533-.6.625-.6v.361a.7.7,0,0,0,.347.574c.247-.182.37-.331.37-.451l-.186-.361v-.12c.478-.1.717-.251.717-.451v-.574h.717a6.506,6.506,0,0,0,.533-1.869c0-.241-.061-.361-.186-.361h-.092a3.341,3.341,0,0,1-2.13,1.748l-.995-.694v-.12c.308,0,.464-.069.464-.21v-.241h-.37a4.708,4.708,0,0,0,.625-1.628c0-.241-.053-.361-.161-.361-.308.282-.464.482-.464.6a.5.5,0,0,1-.255-.12,2.365,2.365,0,0,1-.37.12v-.241a3.712,3.712,0,0,0,.811-1.176l-.278-.451v-.12a.992.992,0,0,0,.717-.482,1.853,1.853,0,0,0-.161-.694h.255v-.21l.092-.815c-.061,0-.092-.041-.092-.12q-1.088.934-1.436.935c-.092,0-.147-.08-.161-.241v-.361c.294-.061.439-.172.439-.331v-.361h-.533q-.138,0-.533.935c-.247,0-.4-.312-.464-.935h.533a.9.9,0,0,0,.464-.694q.533,0,.533-1.748c-.061,0-.092-.08-.092-.241h-.092a5.424,5.424,0,0,1-1.6,1.748v-.12l-.464.12a1.4,1.4,0,0,0-.069-.451.94.94,0,0,0-.464.21H274.2q.625-1.146.995-1.146a37.183,37.183,0,0,1,.972-3.739c-.061,0-.092-.041-.092-.12l-.439.361h-.255l.255-.451v-.12l-.092-.241c-.325.3-.533.451-.625.451-.17-.161-.255-.272-.255-.331q.533,0,.533-1.056v-.331H275.1l-.347.331-.186-.12.092-.21v-.6a.193.193,0,0,0-.186-.21l.092-.6h-.092a9.105,9.105,0,0,1-1.064,1.3c-.108,0-.2-.2-.278-.6q.533-.6.533-.815a.9.9,0,0,0-.092-.331.211.211,0,0,1,.186-.241l-.092-.241q-.533.815-.625.815h-.255l-.186-.09a1.147,1.147,0,0,0,.092-.361,4.848,4.848,0,0,0,.625-1.507l-.092-.241-.439.451.069-.815v-.09c-.139,0-.225.151-.255.451h-.092c-.092,0-.155-.08-.186-.241v-.121c.155-.3.278-.451.37-.451l-.092-.241q-.533.542-.533.694a.648.648,0,0,0-.37-.21,4.5,4.5,0,0,1,.092-.815H271.7l-.255.21h-.092v-.451h-.092c-.108,0-.169.08-.186.241a.578.578,0,0,1-.347-.121c-.247.121-.37.392-.37.815h.278v.241a.393.393,0,0,0-.439.451l.161.362q-.346.815-.439.815h-.092l.092-.482v-.121a.608.608,0,0,0-.278.121h-.069v-.121h.161v-.21c-.139,0-.286-.161-.439-.482h-.347v.12l.069.241c-.294.282-.439.472-.439.574v.241a1.182,1.182,0,0,1,.37.815v.331c.231,0,.347.08.347.241v.361a2.946,2.946,0,0,0-.347.574l-.37-.241q-.533,0-.533-.935c-.294.061-.439.182-.439.361a.608.608,0,0,1-.278-.12,2.716,2.716,0,0,1-.88,1.056v.241c.139.3.255.451.347.451q.346,1.507.625,1.507l.439-.574a1.748,1.748,0,0,0,.186.815v.241c-.061,0-.092-.041-.092-.12a9.767,9.767,0,0,0-.972.12c-.092-.321-.216-.482-.37-.482q-.533-.573-.811-.574l-.161.12v.21q.487,1.869.972,1.869c.139,0,.231-.192.278-.574h.186l-.092.241v.12l.092.21c-.108,0-.169.08-.186.241a1.832,1.832,0,0,1,.439.935v.12c-.108,0-.4-.231-.88-.694a.567.567,0,0,0-.37.21H265.8l-.161-.12c-.155-.684-.517-1.025-1.089-1.025,0,.221-.053.331-.161.331,0,.161.116.241.347.241v.361a.823.823,0,0,0-.439.21c0,.161.086.241.255.241v.361l-.161-.12-.186.12a5.027,5.027,0,0,1,.278,1.266h.255l.186.12.186-.482h.255v.12a.5.5,0,0,0-.255.121c0,.241.116.361.347.361a8.828,8.828,0,0,0,.439,2.081l-.347.241c0-.382-.092-.613-.278-.694-.139,0-.225.151-.255.451h-.186c-.155,0-.247-.192-.278-.574H264.3v.361a.607.607,0,0,0-.37-.12l.092-.241v-.451c0-.141-.053-.221-.161-.241h-.092l-.278.241a1.653,1.653,0,0,0,.186.694h-.186l-.347-.361-.186.12a4.3,4.3,0,0,0,.439,1.387q.184,0,.533-.331c0,.382.155.574.464.574l-.186.361c0,.1.147.251.439.451h.092c.016-.382.108-.574.278-.574a.393.393,0,0,0,.439.451,3.383,3.383,0,0,1-.278,1.056l-.625-.12H264.2c-.047-.382-.139-.574-.278-.574q-.325-.815-.439-.815a1.051,1.051,0,0,0-.439.935v.451q.625.542.625.694l.255-.241c-.047.623-.161.935-.347.935H263.3q-.487,0-1.25-1.266l-.255.241.092,1.146v.482l.161.331.625-.12c.061,0,.123.241.186.723.061,0,.092-.041.092-.12l.278.21h.069l.464-.451c.108,0,.161.12.161.361,0,.423.509.723,1.528.9h.278c0,.161.116.241.347.241v.121a1.964,1.964,0,0,1-.347.12,3.112,3.112,0,0,1-.995-.241c-.586.462-.88.815-.88,1.056h-.186c0-.382-.092-.574-.278-.574l-.161.09.255.482v.12H261.8v-.086a.223.223,0,0,0,.253-.253c0-.169-.212-.253-.635-.253l.382-.509c-.169-.339-.382-.509-.635-.509v-.382c-.339-.17-.509-.3-.509-.382a1,1,0,0,0-.382.127l-.253-.127a1,1,0,0,0-.382.127l.127.253-.127.635a1.111,1.111,0,0,0-1.017-.509l.127-.253v-.382h-.127l-.509.382a.947.947,0,0,0-.253-.509c-.169,0-.253.127-.253.382-.253-.127-.382-.253-.382-.382a.987.987,0,0,0-.382.127c-.084,0-.127-.127-.127-.382h-.127l-.382.253h-.127v-.382c0-.149.084-.233.253-.253h.89v-.253h-.382l.127-.253c-.319-.423-.529-.635-.635-.635H256.2l-.253.127v-.635h.762l.382-.253-.127-.253c.253,0,.382-.084.382-.253,0-.149-.084-.233-.253-.253l-.635.509a1,1,0,0,1,.127-.382l-.127-.253a.112.112,0,0,0-.127.127l-.253-.127h-.127c-.149,0-.233.084-.253.253l-.635-.127q0,.254-1.017.635h-.127v-.253l.127-.635a10.69,10.69,0,0,0,2.925-1.526.112.112,0,0,0-.127-.127,6.385,6.385,0,0,0,1.526-1.144v-.253l-.253-.382a.112.112,0,0,0-.127.127.987.987,0,0,1-.382-.127.932.932,0,0,0-.509.253l-.253-.127q-.444,1.143-.635,1.144a.932.932,0,0,0-.509-.253v-.127h.509v-.127a2.566,2.566,0,0,1-.509-1.017c-.149,0-.233.084-.253.253-.17,0-.253-.127-.253-.382h-.253q0,.349-.635.635c-.149,0-.233-.084-.253-.253.127-.253.253-.382.382-.382a1.377,1.377,0,0,0-.253-.635.223.223,0,0,0,.253-.253,1.474,1.474,0,0,1-.382-.89v-.382a1.462,1.462,0,0,1,.382-.89v-.127q0-.349-.89-.509-.254,0-.382,1.017l.127.635c0,.423-.127.678-.382.762l.127.635a4,4,0,0,1-.382.89q.38,1.241.635,1.27a1,1,0,0,1-.127.382l.127.253v.127q-.763-.444-.762-.89c-.678-.084-1.017-.212-1.017-.382-.149,0-.233.084-.253.253a.874.874,0,0,1-.509-.89v-.382a1,1,0,0,0-.382.127.112.112,0,0,1-.127-.127,1.366,1.366,0,0,0-1.144.382,4.26,4.26,0,0,0,.762,1.017l.509-.382h.253q0,1.017.635,1.017v.382a1,1,0,0,0-.382.127.112.112,0,0,0,.127.127,1,1,0,0,1-.127.382c0,.359.382.615,1.144.762v.127a1.946,1.946,0,0,0-.509.89c-.17,0-.253-.127-.253-.382q-.827-.414-.89-.762c-.127,0-.253.17-.382.509H249.6c-.084,0-.17.127-.253.382a1,1,0,0,0,.127.382,5.035,5.035,0,0,1,3.942,2.161v.127q-2.543-.634-2.543-1.27a1.469,1.469,0,0,0-.762.253l.127.635h-.382v.127l.127.253a1.021,1.021,0,0,0,.509-.127l.253.127.253-.127a.223.223,0,0,1,.253.253c-.127.253-.253.382-.382.382a1,1,0,0,0-.127-.382c-.149,0-.233.084-.253.253l-.253-.127h-.127v.382l.127.253a1.3,1.3,0,0,0-.635.127,4.676,4.676,0,0,1-.382-1.017h-.253l-.127.509h-.127v-.762h-.127c-.17,0-.253.17-.253.509h-.127c-.149,0-.233-.084-.253-.253-.678.084-1.017.212-1.017.382l-.635-.127a1.233,1.233,0,0,1-.509.89v.127l.635-.127h.127v.253c-.127.253-.253.382-.382.382h-.127l-.382-.253-.253.127v-.127l-.509.382.253.382v.127a1,1,0,0,0-.382.127l.253.382a1.469,1.469,0,0,0,.762-.253q.509,1.017.635,1.017h.127l.509-.382h.127v.509h-1.144v.253a1.16,1.16,0,0,1,.509.89h.253c.253-.127.382-.253.382-.382l.253.127h.253v-.253l.635.127.509-.127a.776.776,0,0,0,.762.509v.509a1.475,1.475,0,0,0-.762-.253h-.127l-.253.127a.112.112,0,0,0-.127-.127H248.2l-.253.127a.112.112,0,0,0-.127-.127h-.253v.127a1.015,1.015,0,0,1,.253.635,1.021,1.021,0,0,0,.509-.127h.127a1.1,1.1,0,0,0-.253.762h-.635c-.149,0-.276-.212-.382-.635l-.635.127a1.032,1.032,0,0,1-.233-.027c.031-.21.055-.453.071-.725v-.123l-.245-.368q-2.935-.643-2.937-2.324v-.611a12.164,12.164,0,0,0,.368-2.079l-.245-.856-2.569.611h-.123a5.038,5.038,0,0,1,1.714-2.692v-.245q-.184-.368-.368-.368a7.908,7.908,0,0,0,.611-2.447l-.245-.368a7.161,7.161,0,0,1-1.714.49h-.123a.648.648,0,0,1-.733-.733,7.763,7.763,0,0,0,1.591-2.692v-.123a12.3,12.3,0,0,1-1.713.245h-.368a3.28,3.28,0,0,0,1.591-1.591,4.745,4.745,0,0,0-2.079-.368,9.062,9.062,0,0,0,1.468-1.591v-.123l-.123-.245c-.958.082-1.652.123-2.079.123a3.037,3.037,0,0,1,.49-1.223.941.941,0,0,0-.123-.368,6.068,6.068,0,0,0-1.223.245l-.245-.123a3.326,3.326,0,0,1,.978-2.079l-.123-.245a10.712,10.712,0,0,1-1.346.245c-.327,0-.49-.245-.49-.733v-.733h-.245a11.545,11.545,0,0,1-.49,1.713,4.561,4.561,0,0,1-.978-.123l-1.468.368a11.261,11.261,0,0,0,.856,2.447h-.611q-.947,0-1.1.49v.123q1.467.977,1.468,1.223a.92.92,0,0,1-.978.611h-.856q-.337,0-.49.978a7.631,7.631,0,0,1,.49,1.468q-.031.276-1.1.733a7.447,7.447,0,0,0,.856,2.324h-.123q0,.214-1.468.733.061.613,1.223,1.591,0,.214-1.1.856-2.2,0-2.2,1.1l.49.49q1.13,0,1.956,2.079,0,.123-.49.49-2.325.123-2.324.49v.245q0,.551,2.569.856l-.245.368q-2.08.551-2.079,1.468-1.222,0-1.223,2.079a4.714,4.714,0,0,1-1.346-.245.108.108,0,0,1-.123.123q.043.3.092.57c-.468-.335-.85-.613-1.142-.833v-.043a1.73,1.73,0,0,1,.045-.345v-.345a.622.622,0,0,0-.315-.519,1.342,1.342,0,0,1-.359-.3q-.809-4.534-1.076-6.823h-.494a1.544,1.544,0,0,0-.539.216c-.27.145-.4.274-.4.388q-.181,3.37-.27,5.355a2.038,2.038,0,0,1-.4.216v.3a2.349,2.349,0,0,1,.494.6.558.558,0,0,1-.315.519c-.21.114-.433.245-.672.388a4.9,4.9,0,0,1,.539.431c.21.143.315.288.315.431q0,.432-1.436.69a.928.928,0,0,0,.562.519,1.253,1.253,0,0,1,.562.388,2.936,2.936,0,0,1-.874.476c-.433.174-.649.345-.649.519v.043q.674.432.986.647v.216a3.322,3.322,0,0,1-1.346.476.9.9,0,0,0,.4.6l.065.047a1.318,1.318,0,0,1-.476.1h-.741a.558.558,0,0,1-.292-.141.558.558,0,0,0-.292-.141c-.071,0-.106.016-.106.047l.053.047h-.106a2.734,2.734,0,0,1-.874-.56,2.437,2.437,0,0,1-.821-.886.533.533,0,0,1,.212-.047.77.77,0,0,1,.345.163.967.967,0,0,0,.556.163.449.449,0,0,1-.266-.141c0-.031.045-.061.133-.094a.572.572,0,0,0,.186-.094.474.474,0,0,0,.319.094h.319a.384.384,0,0,1-.266-.094l.159-.186h1.06a2.368,2.368,0,0,1-.848-.233,5.065,5.065,0,0,1,1.007-.186.565.565,0,0,1-.372-.094q0-.092.423-.374a2.382,2.382,0,0,0,.529-.421,1.983,1.983,0,0,1-1.113.466h-.635a1.281,1.281,0,0,1-.741-.327.129.129,0,0,1,.053.094.341.341,0,0,1-.212.047q.052,0-1.642-1.213l.159-.141a1.332,1.332,0,0,0,.635.141.5.5,0,0,1-.423-.28,6.932,6.932,0,0,1,.848-.047.661.661,0,0,1-.423-.094c.106-.094.159-.155.159-.186h.159a.906.906,0,0,0,.688-.28,5.84,5.84,0,0,1-.848.233,1.689,1.689,0,0,1-.319-.047,1.7,1.7,0,0,0-.345-.047.363.363,0,0,1-.265-.163c-.088-.108-.149-.163-.186-.163-.071,0-.106.016-.106.047s-.035.047-.106.047q-.478,0-1.323-1.867a.165.165,0,0,1,.106-.047c.212.249.494.59.848,1.027v-.047c0-.186.018-.3.053-.327a1.482,1.482,0,0,1,.423.513,1.334,1.334,0,0,1-.106-.374.182.182,0,0,1,.053-.141,2.554,2.554,0,0,0,.954.98c-.106-.155-.265-.388-.476-.7a.165.165,0,0,1,.106-.047.848.848,0,0,1,.372.186.821.821,0,0,0,.423.186.98.98,0,0,0-.133-.094.717.717,0,0,1-.133-.094,2.25,2.25,0,0,1,.476.047l.212.047a.149.149,0,0,1-.106-.141.136.136,0,0,1,.053-.094,2.125,2.125,0,0,0,.582.094h.159c-.035-.031-.1-.078-.186-.141a2.165,2.165,0,0,1-.186-.141,2,2,0,0,1,.529-.094h.106c-.071,0-.106-.031-.106-.094a.136.136,0,0,1,.053-.094h.106a.855.855,0,0,0,.741-.374,4.406,4.406,0,0,1-.954.233c-.071,0-.3-.031-.688-.094a.512.512,0,0,0-.08-.186c-.053-.094-.114-.141-.186-.141s-.106.016-.106.047-.035.047-.106.047q-.211,0-.794-.933a.469.469,0,0,1-.159.047h-.053a2.058,2.058,0,0,1-.9-.327.318.318,0,0,0,.159-.141c0-.031-.088-.108-.265-.233s-.266-.249-.266-.374a.185.185,0,0,1,.053-.141v.047a2.528,2.528,0,0,1,.4.163c.157.078.274.133.345.163l-.159-.141.106-.141a1.371,1.371,0,0,0,.529.141c-.071-.031-.106-.061-.106-.094a.132.132,0,0,1,.053-.094,1.986,1.986,0,0,0,.423.047h.266a.378.378,0,0,1-.372-.233,2.124,2.124,0,0,1,.582-.094h.106a.384.384,0,0,1-.265-.094,7.627,7.627,0,0,0,.794-.56,2.06,2.06,0,0,1-1.06.28h-.319c-.071,0-.149-.055-.239-.163s-.149-.163-.186-.163c-.071,0-.106.016-.106.047v.047h-.106q-.159,0-.688-.654a2.2,2.2,0,0,1-.529-.839l.635.466c-.035-.031-.071-.061-.106-.094l.053-.047c.176.155.3.233.372.233a1.689,1.689,0,0,1,.319.047,1.888,1.888,0,0,0,.266.047c-.247-.061-.372-.155-.372-.28a1.342,1.342,0,0,1,.476-.141h.341a.25.25,0,0,1-.076-.047.574.574,0,0,1,.372-.094h.053a.672.672,0,0,1-.265-.047.475.475,0,0,1,.319-.094c-.035,0-.053-.031-.053-.094a1.392,1.392,0,0,0,.476-.421,1.855,1.855,0,0,1-.954.327q-1.431,0-1.854-.747a.32.32,0,0,1,.159-.094.165.165,0,0,1,.106.047,3.182,3.182,0,0,1-.423-.421.989.989,0,0,1,.59.255.222.222,0,0,1,.1-.067l.266.116a.984.984,0,0,1,.212.116c-.035-.031-.071-.061-.106-.094h.106a.449.449,0,0,1,.265.141,1.375,1.375,0,0,1-.159-.327v-.047q0,.141.319.141a1.194,1.194,0,0,0,.319-.163,1.19,1.19,0,0,1,.635-.163.782.782,0,0,1-.476-.094,1.91,1.91,0,0,0,.67-.533,1.4,1.4,0,0,1-.935.253.9.9,0,0,1-.848-.466l-.212.141a5.864,5.864,0,0,1-1.748-.654.394.394,0,0,1,.265-.094h.106c-.106-.061-.159-.125-.159-.186a.136.136,0,0,1,.053-.094,1.261,1.261,0,0,1,.423.56V155.9c0-.031.053-.047.159-.047a.573.573,0,0,1,.212.094c-.247-.186-.372-.357-.372-.513a2.17,2.17,0,0,1,.529.374l-.053-.094a.348.348,0,0,1,.053-.141c.247.219.372.327.372.327a.652.652,0,0,1-.106-.28v-.094a1.5,1.5,0,0,0,.429.3.992.992,0,0,1-.216-.251.165.165,0,0,1,.106-.047.141.141,0,0,1,.106.069.184.184,0,0,0,.159.069,1.169,1.169,0,0,1,.582-.186h.053a.384.384,0,0,1-.266-.094.475.475,0,0,1,.319-.094c-.071,0-.106-.031-.106-.094,0-.031.035-.055.106-.069a2.1,2.1,0,0,0,.319-.116c-.069-.061-.106-.108-.106-.139,0,.02.053-.027.155-.141a.522.522,0,0,1-.315.094c.035,0-.053-.016-.266-.047h-.476a7.709,7.709,0,0,1-2.224-.98.254.254,0,0,1,.106-.186.3.3,0,0,0,.106-.233,3.859,3.859,0,0,1,.372.56c.106-.219.229-.327.372-.327a.887.887,0,0,1,.37.057c-.069-.051-.1-.1-.1-.151a.136.136,0,0,1,.053-.094c0,.125.088.186.265.186a.449.449,0,0,0,.266-.141.449.449,0,0,1,.265-.141h-.053c-.035,0-.053-.047-.053-.141h.265q-.793-.233-1.536-.421a2.082,2.082,0,0,1-1.323-.98l.794.466a2.159,2.159,0,0,1-.529-.654c.529.343.76.513.688.513.071,0,.106-.016.106-.047l-.053-.047h.106l.266.466v-.374a1.047,1.047,0,0,0,.319.186c-.176-.155-.266-.249-.266-.28a4.179,4.179,0,0,1,1.323.466c-.212-.219-.319-.357-.319-.421h.106a.616.616,0,0,1,.319.094v-.047a.379.379,0,0,1,.053-.186,1.108,1.108,0,0,0,.517.139.445.445,0,0,1-.3-.094.728.728,0,0,1,.372-.094h.053a.345.345,0,0,1-.212-.047,5.981,5.981,0,0,1,.635-.466,1.438,1.438,0,0,1-.741.186,1.813,1.813,0,0,1-.556-.28,2.255,2.255,0,0,0-.715-.327c-.176-.031-.476-.094-.9-.186a1.8,1.8,0,0,0,.529-.466c-.388-.094-.582-.28-.582-.56,0-.094.071-.2.212-.327.176.155.266.249.266.28v-.139a.329.329,0,0,1-.053-.141.379.379,0,0,1,.053-.186c.035.031.1.078.186.141a.432.432,0,0,0,.186.094,1.357,1.357,0,0,1-.106-.466v-.141h.053a.535.535,0,0,0,.449-.28,2.145,2.145,0,0,1,.292-.374,1.454,1.454,0,0,1-.954.421,2.019,2.019,0,0,1-1.43-.607.594.594,0,0,1,.529-.233h.212c-.247,0-.406-.047-.476-.141a2.962,2.962,0,0,1,.4-.282,1.108,1.108,0,0,1-.243-.045c.035,0,.053-.016.053-.047a1.451,1.451,0,0,0,.741-.466l-.372.141a.165.165,0,0,1-.106-.047,1.122,1.122,0,0,0,.159-.56,1.973,1.973,0,0,1-.794.28c-.282,0-.423-.186-.423-.56,0-.061.061-.133.186-.21s.186-.133.186-.163a.149.149,0,0,1,.106.141,3.564,3.564,0,0,0,.212-.933,3.552,3.552,0,0,1-.741.56c-.212-.186-.319-.343-.319-.466a5.228,5.228,0,0,1,.319-.654l-.106.094h-.688c.106.094.229.2.372.327v.56a.541.541,0,0,1-.372.141q-.53,0-.741-.654a6.857,6.857,0,0,0,.372,1.027.349.349,0,0,1,.053-.141,1.459,1.459,0,0,1,.423.654.33.33,0,0,1-.372.374,1.008,1.008,0,0,1-1.007-.56c.071.155.194.435.372.839a.236.236,0,0,1-.153.047c.057,0-.069-.016-.376-.047a3.333,3.333,0,0,1,.449.186c.194.094.345.172.449.233a.341.341,0,0,1-.212.047h-.053a2.918,2.918,0,0,1,.423.327.673.673,0,0,1-.21.076,1,1,0,0,1,.529.392,5.367,5.367,0,0,1-1.007.513,2.525,2.525,0,0,1-1.536-.466,3.4,3.4,0,0,0,.635.513c-.071.031-.106.061-.106.094l.159.047c.106.031.229.061.372.094a1.149,1.149,0,0,1-.159.654l.372-.28a.458.458,0,0,1,.106.28.322.322,0,0,1-.02.114,2.772,2.772,0,0,1,.231-.347q.319.561.319.466,0,.747-1.642.747a2.407,2.407,0,0,0-.423.069,2.984,2.984,0,0,1-.372.069,1.506,1.506,0,0,1-.9-.233.64.64,0,0,0,.423.513.173.173,0,0,1-.159.094h-.053a.87.87,0,0,1,.582.327.329.329,0,0,1-.212.094.533.533,0,0,0,.212-.047h.266a.533.533,0,0,1,.212.047,1.5,1.5,0,0,1-.159.116c-.071.047-.106.086-.106.116.106-.061.266-.155.476-.28v.094a.443.443,0,0,1-.106.186.484.484,0,0,1,.319-.141c.035,0,.053.016.053.047-.035,0-.053.031-.053.094l.053.047a.921.921,0,0,0,.372-.163,3.731,3.731,0,0,0,.319-.21,3.265,3.265,0,0,1-.372.421c.106,0,.159.031.159.094l-.053.047a3.483,3.483,0,0,1,.529-.374.129.129,0,0,1,.053.094c0,.061-.053.125-.159.186h.106a.345.345,0,0,0,.212-.047.129.129,0,0,1,.053.094v.047a.553.553,0,0,0-.159.094c.247-.031.335-.047.266-.047h.053a1.135,1.135,0,0,1-.741.466,1.382,1.382,0,0,1-.848-.327.7.7,0,0,0,.053.186.129.129,0,0,0-.053.094c0,.033.053.055.159.069s.159.039.159.069l-.053.094q.793.42.635.421h.635a.129.129,0,0,0-.053.094c0,.033.053.094.159.186l.212-.186a1.491,1.491,0,0,1,.372.186.329.329,0,0,0-.053.141,2.64,2.64,0,0,1-1.164.233h-.476l-.212.233-.212-.141a2.029,2.029,0,0,0-.4.069,2.054,2.054,0,0,1-.4.069.686.686,0,0,1-.635-.374.946.946,0,0,1,.106.327v.047l-.159.047a1.352,1.352,0,0,1,.476.233.394.394,0,0,1-.266.094.484.484,0,0,1,.319.141c-.035.061-.141.094-.319.094a1,1,0,0,1,.266.047h.319a.129.129,0,0,1,.053.094h-.053a.173.173,0,0,1-.159.094h.635c0,.061-.088.172-.266.327a2.734,2.734,0,0,0,.476-.28l.053.047c0,.031-.035.078-.106.141a.471.471,0,0,0,.265.047h.319a.449.449,0,0,0,.266-.141c.106-.094.176-.155.212-.186a.129.129,0,0,1,.053.094v.047a5.982,5.982,0,0,1-.635.466,3.087,3.087,0,0,1,.529-.047,2.25,2.25,0,0,1,.476.047c-.282.155-.619.327-1.007.513a13.54,13.54,0,0,0-1.589.327,1.784,1.784,0,0,1-1.217-.466,4.661,4.661,0,0,0,.635.56.329.329,0,0,1-.212.094.9.9,0,0,1,.582.141.842.842,0,0,1-.423.094h-.106a1.959,1.959,0,0,0,.372.094,2.632,2.632,0,0,0,.423.047,1.606,1.606,0,0,1-.529.094h.319a1.559,1.559,0,0,0,.423-.047c.176.155.247.233.212.233a.257.257,0,0,0,.212-.069.187.187,0,0,1,.159-.069.381.381,0,0,1,.372.28.553.553,0,0,0-.159.094.834.834,0,0,0-.476.28.569.569,0,0,1-.372.233c-.035,0-.053-.016-.053-.047v-.094c0-.031-.018-.047-.053-.047a.3.3,0,0,0-.212.116.3.3,0,0,1-.212.116,1.4,1.4,0,0,1-1.113-.374c0,.186.194.357.582.513a.466.466,0,0,1-.163.078c.106.035.247.086.429.155a.978.978,0,0,1-.133.094.828.828,0,0,0-.133.094,1.386,1.386,0,0,1,.635.163,1.665,1.665,0,0,0,.372.163.52.52,0,0,0,.239-.069.478.478,0,0,1,.186-.069.161.161,0,0,1,.106.047.922.922,0,0,1-.794.513,1.646,1.646,0,0,1-1.072-.335c.123.114.27.257.437.429a.394.394,0,0,1-.265.094,1.291,1.291,0,0,1,.529.094.757.757,0,0,1-.423.141,1.278,1.278,0,0,1,.688.141.842.842,0,0,1-.423.094h.372a1.348,1.348,0,0,0,.372-.047l.106.141a.964.964,0,0,1-.372.094c-.319-.031-.776-.078-1.376-.141q-.319-.233-.159-.233c-.071,0-.114.016-.133.047s-.061.047-.133.047a1.05,1.05,0,0,1-.848-.513v.186a.9.9,0,0,0,.319.513c-.071.031-.106.061-.106.094l.186.047c.125.031.186.061.186.094a.224.224,0,0,1-.212.094,8.084,8.084,0,0,1,.954.233c-.118.084-.214.147-.284.188.106-.045.306-.123.6-.235v.094a.254.254,0,0,1-.106.186,6.513,6.513,0,0,0,1.007-.28.129.129,0,0,1,.053.094c-.176.094-.388.219-.635.374.212-.031.3-.047.266-.047a.165.165,0,0,1,.106.047.255.255,0,0,1-.037.125,4.975,4.975,0,0,1,.515-.451,1.48,1.48,0,0,1-1.536.98,1.13,1.13,0,0,1-.741-.186.419.419,0,0,1-.423.233,2.822,2.822,0,0,1-.794-.094,2.589,2.589,0,0,1-.319-.186.788.788,0,0,0-.266-.141c.176.155.406.374.688.654a.341.341,0,0,1-.212.047h-.053a1.935,1.935,0,0,1,.635.233.688.688,0,0,1-.335.092.973.973,0,0,1,.6.374h.531a.165.165,0,0,1,.106.047l-.074.065c.182-.047.4-.114.658-.2a.129.129,0,0,1,.053.094v.047q-.052.233-.741.607h.106a1.654,1.654,0,0,0,.954-.513v.141a.416.416,0,0,1-.106.233,4.2,4.2,0,0,0,.741-.513v.141h.106q-.159,0,.954-.56a.129.129,0,0,1,.053.094v.047q-1.112,1.213-1.854,1.213a1.385,1.385,0,0,1-.345-.069,1.385,1.385,0,0,0-.345-.069c-.071,0-.529.133-1.376.4s-1.307.4-1.377.4a1,1,0,0,1-.688-.233c.035.094.176.2.423.327a.32.32,0,0,1-.159.094.374.374,0,0,1-.072-.006c.047.022.1.049.151.076q.132.07.239.116a.235.235,0,0,1-.159.047h.159c.141,0,.229.031.265.094a.837.837,0,0,1-.319.047h.476c.071,0,.106.022.106.069s.035.069.106.069q-.052,0,.319-.141l.053.047a.79.79,0,0,1-.476.374,1.029,1.029,0,0,0,.688-.374l.106.186.159-.186.053.047a.129.129,0,0,0-.053.094c0,.033.035.047.106.047s.176-.078.319-.233.247-.233.319-.233l.053.047v.047c-.212.186-.319.3-.319.327v.047a.172.172,0,0,1,.1.157c.1-.159.247-.351.425-.576a.129.129,0,0,1,.053.094v.094c0,.031.018.047.053.047a.672.672,0,0,0,.266-.047c.106.094.176.141.212.141.106-.125.247-.31.423-.56a.129.129,0,0,1,.053.094l-.053.047a9.662,9.662,0,0,0-.582,1.213.889.889,0,0,0,.186-.233.527.527,0,0,0,.08-.186l.053.374a3.711,3.711,0,0,1-.848.7c-.071,0-.106-.016-.106-.047l.053-.047h-.106a.489.489,0,0,0-.266.116.489.489,0,0,1-.266.116h-.529a3.3,3.3,0,0,1-.9-.28,8.654,8.654,0,0,1,.848.56,1.224,1.224,0,0,1-.219.045c.178.035.392.082.643.143l-.159.186h-.319a4.1,4.1,0,0,1,.848.141.808.808,0,0,1-.372.141h.423a.322.322,0,0,0,.266-.141l.106.141-.159.186h.319a2.621,2.621,0,0,1,.529-.327v.141a.6.6,0,0,1-.208.537Zm-61.626,6.253H283.218a74.793,74.793,0,0,0,.95-11.911c0-40.219-31.952-72.822-71.364-72.822s-71.364,32.6-71.364,72.818a74.774,74.774,0,0,0,.95,11.911Z" transform="translate(-112.554 -71.261)" fill="#fff"/>
    <path id="Path_752" data-name="Path 752" d="M822.668,254.8l-.39-.927-2.608,1.042a14.363,14.363,0,0,0,.909,3.558,7.233,7.233,0,0,0,.893,1.577,3.83,3.83,0,0,0,1.174,1.048,3.225,3.225,0,0,0,1.481.4,4.5,4.5,0,0,0,1.818-.368,3.4,3.4,0,0,0,1.411-.991,4.143,4.143,0,0,0,.766-1.5,11.765,11.765,0,0,0,.357-2.291,9.537,9.537,0,0,1,.27-1.84,2.811,2.811,0,0,1,.556-1.082,2.651,2.651,0,0,1,1.044-.692,2.285,2.285,0,0,1,1.217-.161,1.955,1.955,0,0,1,1.009.48,2.7,2.7,0,0,1,.682.988,3.131,3.131,0,0,1,.29,1.2,1.874,1.874,0,0,1-.333,1.021,4.282,4.282,0,0,1-1.078,1.058l.386.917,2.569-1.025a13.16,13.16,0,0,0-.366-1.82,13.52,13.52,0,0,0-.5-1.407,5.717,5.717,0,0,0-1.336-1.985,3.534,3.534,0,0,0-1.814-.944,3.729,3.729,0,0,0-2.057.253,3.15,3.15,0,0,0-1.221.85,3.833,3.833,0,0,0-.752,1.4,9.816,9.816,0,0,0-.359,2.146,11.218,11.218,0,0,1-.3,2.067,2.884,2.884,0,0,1-.582,1.152,2.833,2.833,0,0,1-1.1.719,2.241,2.241,0,0,1-3.219-1.336,3.3,3.3,0,0,1-.308-1.383,2.034,2.034,0,0,1,.376-1.1,4.284,4.284,0,0,1,1.113-1.029Z" transform="translate(-652.27 -199.749)" fill="#fff"/>
    <path id="Path_753" data-name="Path 753" d="M512.694,9.166,508.655.382l-3.2-.372L505.4.5a3.579,3.579,0,0,1,.635.31.871.871,0,0,1,.278.315,1.236,1.236,0,0,1,.108.506,7.145,7.145,0,0,1-.071,1l-1.058,8.6a6.746,6.746,0,0,1-.2,1.086.964.964,0,0,1-.349.519,2.153,2.153,0,0,1-.89.255l-.059.488,3.729.435.059-.488a2.878,2.878,0,0,1-.649-.319.848.848,0,0,1-.28-.335,1.354,1.354,0,0,1-.094-.5,7.182,7.182,0,0,1,.074-.98l.249-2.03q.245-1.988.46-4c.143-1.338.223-2.267.239-2.782l.174.02c.1.274.2.551.323.835s.317.733.6,1.352l4.548,9.954,1.276.149,1.37-11.151a6.2,6.2,0,0,1,.19-1.037,1.245,1.245,0,0,1,.237-.457.908.908,0,0,1,.339-.223,3.371,3.371,0,0,1,.676-.143l.059-.488L513.691.97l-.059.488a3.435,3.435,0,0,1,.631.31.808.808,0,0,1,.263.308,1.2,1.2,0,0,1,.088.5,9.351,9.351,0,0,1-.082,1.009l-.257,2.089q-.178,1.452-.359,3.264t-.2,2.422l-.133-.016q-.2-.588-.392-1.064c-.131-.317-.294-.69-.49-1.117Z" transform="translate(-400.902 -0.008)" fill="#fff"/>
    <path id="Path_754" data-name="Path 754" d="M438.128,2.551q.573-.08,1.495-.145a4.252,4.252,0,0,1,1.85.2,2.211,2.211,0,0,1,1.082.888,3.374,3.374,0,0,1,.451,1.556,3.727,3.727,0,0,1-.167,1.554,2.411,2.411,0,0,1-.682,1.027,2.722,2.722,0,0,1-.991.547,6.669,6.669,0,0,1-1.438.227l-1.16.082-.441-5.935Zm.506,6.795,1.129-.08a3.974,3.974,0,0,1,.758,0,1.364,1.364,0,0,1,.486.167,2.141,2.141,0,0,1,.521.47,10.728,10.728,0,0,1,.756,1.072l1.027,1.605q.386.607.78,1.191a12.107,12.107,0,0,0,.823,1.086l2.843-.2-.037-.49a1.977,1.977,0,0,1-.811-.225,2.534,2.534,0,0,1-.629-.539,9.856,9.856,0,0,1-.77-1.05l-1.046-1.573a7.255,7.255,0,0,0-1.1-1.374,3.054,3.054,0,0,0-1.125-.639l-.006-.08a4.993,4.993,0,0,0,2.212-1.662,3.574,3.574,0,0,0,.6-2.383,3.042,3.042,0,0,0-1.387-2.555,6.226,6.226,0,0,0-3.654-.6l-5.079.359.037.49a3.582,3.582,0,0,1,.684.188.871.871,0,0,1,.333.257,1.243,1.243,0,0,1,.206.478,7.179,7.179,0,0,1,.127,1l.643,8.643a6.565,6.565,0,0,1,.014,1.1.949.949,0,0,1-.241.574,2.148,2.148,0,0,1-.825.415l.037.49,4.33-.306-.037-.49a3.58,3.58,0,0,1-.684-.188.88.88,0,0,1-.329-.247,1.282,1.282,0,0,1-.206-.478,6.757,6.757,0,0,1-.135-1.04l-.253-3.4Z" transform="translate(-346.105 -1.162)" fill="#fff"/>
    <path id="Path_755" data-name="Path 755" d="M374.619,7.336,365.29,9.621l.123.476a3.657,3.657,0,0,1,.707.069.859.859,0,0,1,.374.2,1.236,1.236,0,0,1,.288.435,7.16,7.16,0,0,1,.3.964l2.171,8.4a6.467,6.467,0,0,1,.21,1.084.959.959,0,0,1-.135.607,2.074,2.074,0,0,1-.739.547l.123.476,9.239-2.263-.692-3.458-.988.243c-.018.474-.037.833-.055,1.082a4.437,4.437,0,0,1-.112.735,1.876,1.876,0,0,1-.255.615,1.252,1.252,0,0,1-.451.411,3.175,3.175,0,0,1-.772.278l-3.1.76-1.448-5.606,2.134-.523a1.58,1.58,0,0,1,.735-.047,1.1,1.1,0,0,1,.513.323,3.663,3.663,0,0,1,.537.8l.937-.231-.964-3.731-.937.231a3.822,3.822,0,0,1-.078.991.986.986,0,0,1-.306.515,1.608,1.608,0,0,1-.658.29l-2.134.523L368.539,9.73l3.153-.772a3.747,3.747,0,0,1,.682-.11,1.267,1.267,0,0,1,.535.08,1.655,1.655,0,0,1,.474.3,3.831,3.831,0,0,1,.484.521,8.759,8.759,0,0,1,.525.76l.978-.239-.758-2.935Z" transform="translate(-290.687 -5.833)" fill="#fff"/>
    <path id="Path_756" data-name="Path 756" d="M302.864,36.784l-3.713-7.875a5.73,5.73,0,0,1-.427-1.1.868.868,0,0,1,.055-.6,2.214,2.214,0,0,1,.594-.613l-.21-.445-3.917,1.75.21.445a2.357,2.357,0,0,1,.88-.031.958.958,0,0,1,.476.327,5.533,5.533,0,0,1,.59,1.048l1.519,3.223-5.2,2.324-1.519-3.223a6.473,6.473,0,0,1-.386-.952,1.217,1.217,0,0,1-.053-.521.908.908,0,0,1,.172-.38,2.878,2.878,0,0,1,.5-.466l-.21-.445-3.935,1.76.21.445a3.469,3.469,0,0,1,.709-.057.881.881,0,0,1,.4.127,1.271,1.271,0,0,1,.366.378,7.347,7.347,0,0,1,.478.895l3.713,7.875a6.453,6.453,0,0,1,.411,1.029.95.95,0,0,1-.018.621,2.079,2.079,0,0,1-.623.67l.21.445,3.935-1.76-.21-.445a2.951,2.951,0,0,1-.725.059.889.889,0,0,1-.419-.143,1.424,1.424,0,0,1-.351-.384,7.635,7.635,0,0,1-.464-.874l-1.8-3.815,5.2-2.324,1.8,3.815a5.628,5.628,0,0,1,.427,1.109.88.88,0,0,1-.061.6,2.246,2.246,0,0,1-.586.6l.21.445,3.917-1.75-.21-.445a3.643,3.643,0,0,1-.619.067,1.013,1.013,0,0,1-.353-.063.983.983,0,0,1-.282-.188,1.71,1.71,0,0,1-.292-.382c-.1-.167-.235-.427-.4-.78Z" transform="translate(-229.413 -20.809)" fill="#fff"/>
    <path id="Path_757" data-name="Path 757" d="M806.491,185.554l-3.084,1.771.517.854a9.805,9.805,0,0,1,1.387-.325,2.873,2.873,0,0,1,.966,0,1.293,1.293,0,0,1,.627.3,2.821,2.821,0,0,1,.484.623l.658,1.086-9.076,5.208a5.783,5.783,0,0,1-.835.415,1.8,1.8,0,0,1-.513.12.958.958,0,0,1-.386-.057,1.328,1.328,0,0,1-.37-.225c-.127-.106-.263-.233-.41-.382l-.435.249,2.387,3.944.435-.249a3.281,3.281,0,0,1-.178-.735.887.887,0,0,1,.094-.478,1.543,1.543,0,0,1,.388-.455,5.662,5.662,0,0,1,.8-.535l9.076-5.208.664,1.1a2.3,2.3,0,0,1,.333.768,1.407,1.407,0,0,1-.059.633,2.666,2.666,0,0,1-.435.78,9.717,9.717,0,0,1-.978,1.068l.513.846,3.084-1.771-5.651-9.339Z" transform="translate(-633.45 -147.655)" fill="#fff"/>
    <path id="Path_758" data-name="Path 758" d="M753.322,140.168l6.738-5.661a6.106,6.106,0,0,1,.966-.7.949.949,0,0,1,.611-.116,2.248,2.248,0,0,1,.77.386l.382-.321-2.816-3.178-.382.321a2.178,2.178,0,0,1,.274.815.916.916,0,0,1-.19.537,5.649,5.649,0,0,1-.87.843l-2.757,2.316-3.735-4.217,2.757-2.316a6.789,6.789,0,0,1,.831-.625,1.294,1.294,0,0,1,.5-.194.962.962,0,0,1,.423.055,2.907,2.907,0,0,1,.6.337l.382-.321-2.829-3.194-.382.321a3.3,3.3,0,0,1,.253.647.836.836,0,0,1-.012.415,1.207,1.207,0,0,1-.272.445,7.641,7.641,0,0,1-.75.7l-6.737,5.661a6.739,6.739,0,0,1-.9.67,1.033,1.033,0,0,1-.617.155,2.109,2.109,0,0,1-.835-.4l-.382.321,2.829,3.194.382-.321a2.794,2.794,0,0,1-.259-.662.844.844,0,0,1,.025-.431,1.41,1.41,0,0,1,.282-.435,7.873,7.873,0,0,1,.733-.676l3.264-2.743,3.735,4.217-3.264,2.743a5.866,5.866,0,0,1-.976.709.944.944,0,0,1-.611.108,2.292,2.292,0,0,1-.76-.382l-.382.321,2.816,3.178.382-.321a3.306,3.306,0,0,1-.239-.56.859.859,0,0,1-.035-.347.916.916,0,0,1,.108-.315,1.789,1.789,0,0,1,.294-.38c.137-.141.355-.339.658-.592Z" transform="translate(-592.324 -99.416)" fill="#fff"/>
    <path id="Path_759" data-name="Path 759" d="M711.186,102.633l2.236-2.71a9.454,9.454,0,0,1,.643-.723,2.128,2.128,0,0,1,.468-.359,1.071,1.071,0,0,1,.468-.129,1.7,1.7,0,0,1,.611.125l.317-.382-3.239-2.534-.317.382a1.843,1.843,0,0,1,.4.776,1.159,1.159,0,0,1-.131.694,6.279,6.279,0,0,1-.762,1.074l-.386.468a2.1,2.1,0,0,1-1.479.88,3.071,3.071,0,0,1-2.782-2.42,4.3,4.3,0,0,1,.431-2.355,12.691,12.691,0,0,1,1.85-2.857,10.7,10.7,0,0,1,2.487-2.287,4.734,4.734,0,0,1,2.353-.813,2.981,2.981,0,0,1,1.983.651,3.471,3.471,0,0,1,.909.986,2.033,2.033,0,0,1,.245,1.117,4.531,4.531,0,0,1-.392,1.5l.794.621,1.773-2.148a16.118,16.118,0,0,0-1.3-1.483A14.73,14.73,0,0,0,717,89.5a5.688,5.688,0,0,0-3.027-1.258,5.784,5.784,0,0,0-3.206.672A9.512,9.512,0,0,0,707.8,91.4a8.556,8.556,0,0,0-2.3,4.83,4.4,4.4,0,0,0,1.938,3.746,6.571,6.571,0,0,0,1.43.874,5.352,5.352,0,0,0,1.47.392l.084,1.068.762.325Z" transform="translate(-561.417 -70.203)" fill="#fff"/>
    <path id="Path_760" data-name="Path 760" d="M670.875,66.657l4.614-7.409a6.858,6.858,0,0,1,.592-.846,1.233,1.233,0,0,1,.415-.335.969.969,0,0,1,.419-.076,2.846,2.846,0,0,1,.676.141l.261-.421-3.713-2.191-.261.421a3.488,3.488,0,0,1,.447.539.834.834,0,0,1,.118.4,1.2,1.2,0,0,1-.116.5,6.943,6.943,0,0,1-.492.886l-4.614,7.409a6.921,6.921,0,0,1-.643.909.992.992,0,0,1-.537.333,2.166,2.166,0,0,1-.919-.127l-.261.421,3.713,2.191.261-.421a2.845,2.845,0,0,1-.457-.551.828.828,0,0,1-.112-.419,1.348,1.348,0,0,1,.129-.5,7.6,7.6,0,0,1,.484-.864Z" transform="translate(-530.668 -44.181)" fill="#fff"/>
    <path id="Path_761" data-name="Path 761" d="M620.227,41.229l4.319-9.346a6.445,6.445,0,0,1,.5-.935,1.214,1.214,0,0,1,.376-.374.923.923,0,0,1,.394-.108,3.565,3.565,0,0,1,.678.061l.206-.447-3.95-1.73-.206.447a3.5,3.5,0,0,1,.511.482.833.833,0,0,1,.167.382,1.225,1.225,0,0,1-.051.515,7.16,7.16,0,0,1-.378.939l-3.652,7.9a6.84,6.84,0,0,1-.525.978.99.99,0,0,1-.492.394,2.178,2.178,0,0,1-.929-.016l-.206.447,8.435,3.7,1.885-3.59-.948-.415q-.573.751-.89,1.109a4.691,4.691,0,0,1-.586.572,2.313,2.313,0,0,1-.5.315,1.349,1.349,0,0,1-.47.112,1.8,1.8,0,0,1-.529-.061,4.494,4.494,0,0,1-.7-.251l-2.459-1.076Z" transform="translate(-490.983 -22.56)" fill="#fff"/>
    <path id="Path_762" data-name="Path 762" d="M224.51,67.336l2.075,2.841.829-.576a9.05,9.05,0,0,1-.451-1.317,2.74,2.74,0,0,1-.086-.937,1.224,1.224,0,0,1,.249-.635,2.816,2.816,0,0,1,.6-.523l1.056-.731,6.108,8.359a5.511,5.511,0,0,1,.5.774,1.773,1.773,0,0,1,.167.488.9.9,0,0,1-.025.38,1.276,1.276,0,0,1-.2.378,5.088,5.088,0,0,1-.355.431l.292.4,3.831-2.655-.292-.4a3.49,3.49,0,0,1-.737.235.969.969,0,0,1-.5-.049,1.554,1.554,0,0,1-.5-.337,5.461,5.461,0,0,1-.615-.729l-6.108-8.359,1.064-.737a2.444,2.444,0,0,1,.758-.39,1.523,1.523,0,0,1,.652,0,2.852,2.852,0,0,1,.835.355,9.712,9.712,0,0,1,1.176.858l.821-.57L233.58,61.05l-9.07,6.284Z" transform="translate(-178.659 -48.582)" fill="#fff"/>
    <path id="Path_763" data-name="Path 763" d="M177.162,116.263c.251-.284.6-.637,1.031-1.064a4.167,4.167,0,0,1,1.534-1.029,2.282,2.282,0,0,1,1.415-.018,3.52,3.52,0,0,1,1.387.888,3.79,3.79,0,0,1,.917,1.283,2.366,2.366,0,0,1,.176,1.211,2.562,2.562,0,0,1-.382,1.046,6.547,6.547,0,0,1-.933,1.089l-.821.8Zm4.951,4.814.8-.78a3.746,3.746,0,0,1,.574-.482,1.4,1.4,0,0,1,.48-.184,2.143,2.143,0,0,1,.709.025,11.149,11.149,0,0,1,1.291.329l1.856.558q.7.211,1.389.4a12.44,12.44,0,0,0,1.354.3l2.014-1.965-.357-.347a1.973,1.973,0,0,1-.764.347,2.621,2.621,0,0,1-.837-.006,10.421,10.421,0,0,1-1.289-.3l-1.848-.523a7.574,7.574,0,0,0-1.754-.339,3.1,3.1,0,0,0-1.281.235l-.059-.057a4.8,4.8,0,0,0,.555-2.667,3.62,3.62,0,0,0-1.148-2.185,3.186,3.186,0,0,0-2.765-1.046,6.125,6.125,0,0,0-3.163,1.879l-3.6,3.509.357.347a3.618,3.618,0,0,1,.643-.294.883.883,0,0,1,.425-.018,1.276,1.276,0,0,1,.476.231,7.772,7.772,0,0,1,.768.676l6.3,6.123a6.824,6.824,0,0,1,.754.825.957.957,0,0,1,.2.588,2,2,0,0,1-.345.839l.357.347,3.068-2.992-.357-.347a3.617,3.617,0,0,1-.643.294.9.9,0,0,1-.415.022,1.331,1.331,0,0,1-.476-.231,7.386,7.386,0,0,1-.8-.7l-2.475-2.406Z" transform="translate(-138.679 -89.404)" fill="#fff"/>
    <path id="Path_764" data-name="Path 764" d="M142.021,176.443a14.214,14.214,0,0,1-1.963-1.552,6.2,6.2,0,0,1-1.229-1.577,3.2,3.2,0,0,1-.39-1.562,2.715,2.715,0,0,1,.543-1.513,2.763,2.763,0,0,1,1.6-1.109,4.582,4.582,0,0,1,2.475.18,12.967,12.967,0,0,1,3.325,1.683,11.874,11.874,0,0,1,2.432,2.089,4.229,4.229,0,0,1,1.062,2.1,2.6,2.6,0,0,1-.488,1.922,2.952,2.952,0,0,1-2.88,1.252,10.172,10.172,0,0,1-4.481-1.912Zm7.979,1.34a5.4,5.4,0,0,0,1.056-2.91,5.1,5.1,0,0,0-.892-3,10.021,10.021,0,0,0-2.941-2.818,10.363,10.363,0,0,0-3.509-1.6,5.038,5.038,0,0,0-3.025.2,5.518,5.518,0,0,0-2.41,2.028,5.127,5.127,0,0,0-1,2.9,5.2,5.2,0,0,0,.931,2.988,9.9,9.9,0,0,0,2.851,2.735,11.483,11.483,0,0,0,2.861,1.446,6.163,6.163,0,0,0,2.445.312,4.464,4.464,0,0,0,2.028-.7A5.871,5.871,0,0,0,150,177.785Z" transform="translate(-109.24 -133.144)" fill="#fff"/>
    <path id="Path_765" data-name="Path 765" d="M102.33,229.387,92.525,230.6l-1.295,2.871.462.2a3.384,3.384,0,0,1,.49-.5.908.908,0,0,1,.39-.167,1.319,1.319,0,0,1,.529.047,7.633,7.633,0,0,1,.968.359l8.149,3.484a6.877,6.877,0,0,1,1.009.5.963.963,0,0,1,.408.476,2,2,0,0,1-.008.9l.462.2,1.509-3.347-.462-.2a2.841,2.841,0,0,1-.5.513.893.893,0,0,1-.41.163,1.442,1.442,0,0,1-.523-.059,7.9,7.9,0,0,1-.941-.353l-1.922-.821q-1.884-.806-3.795-1.589t-2.665-1.029l.069-.155c.3-.012.6-.031.913-.057s.813-.084,1.5-.167l11.1-1.348.517-1.146-10.561-4.516a6.68,6.68,0,0,1-.964-.478,1.266,1.266,0,0,1-.38-.353.85.85,0,0,1-.12-.38,3.09,3.09,0,0,1,.055-.672l-.462-.2-1.489,3.3.462.2a3.177,3.177,0,0,1,.488-.5.813.813,0,0,1,.38-.155,1.306,1.306,0,0,1,.521.063,9.367,9.367,0,0,1,.968.37l1.979.846q1.375.588,3.1,1.283c1.152.464,1.924.762,2.322.895l-.053.118c-.423.008-.811.027-1.16.057s-.764.074-1.24.133Z" transform="translate(-72.598 -177.282)" fill="#fff"/>
    <path id="Path_766" data-name="Path 766" d="M6.746,553.17v2.471H6.021a7.257,7.257,0,0,0-.315-.9,1.832,1.832,0,0,0-.319-.523A.909.909,0,0,0,5,553.964a1.9,1.9,0,0,0-.584-.074H2.249v4.452H3.772a.935.935,0,0,0,.511-.118.882.882,0,0,0,.306-.4,4.252,4.252,0,0,0,.233-.86h.694v3.454H4.822a4.161,4.161,0,0,0-.237-.839.912.912,0,0,0-.3-.4.913.913,0,0,0-.515-.118H2.247v3.208a4.754,4.754,0,0,0,.051.786,1.2,1.2,0,0,0,.17.466.733.733,0,0,0,.319.257,3.243,3.243,0,0,0,.5.159v.4H0v-.4a1.462,1.462,0,0,0,.615-.29.822.822,0,0,0,.2-.453,6,6,0,0,0,.049-.9v-7.079a6.511,6.511,0,0,0-.037-.823,1.078,1.078,0,0,0-.123-.4.669.669,0,0,0-.225-.229,2.4,2.4,0,0,0-.48-.192v-.4H6.75Z" transform="translate(0 -440.197)" fill="#fff"/>
    <path id="Path_767" data-name="Path 767" d="M40.734,558.112a8.713,8.713,0,0,0,.662,3.821,2.088,2.088,0,0,0,1.934,1.309,1.858,1.858,0,0,0,1.368-.568,3.608,3.608,0,0,0,.843-1.664,10.357,10.357,0,0,0,.282-2.561,11.206,11.206,0,0,0-.329-2.957,3.63,3.63,0,0,0-.9-1.705,1.876,1.876,0,0,0-1.323-.531,1.9,1.9,0,0,0-1.142.343,2.571,2.571,0,0,0-.79.978,5.461,5.461,0,0,0-.46,1.534,12.751,12.751,0,0,0-.145,2.005Zm2.432,5.851a3.955,3.955,0,0,1-1.615-.323,3.176,3.176,0,0,1-1.25-1.007,4.981,4.981,0,0,1-.807-1.746,9.94,9.94,0,0,1-.284-2.545,8.76,8.76,0,0,1,.5-3.135,4.287,4.287,0,0,1,1.438-1.993,3.584,3.584,0,0,1,2.171-.684,3.711,3.711,0,0,1,2.216.643,3.88,3.88,0,0,1,1.354,1.891,10.37,10.37,0,0,1-.061,6.272,4.172,4.172,0,0,1-1.46,1.973,3.758,3.758,0,0,1-2.2.656Z" transform="translate(-31.202 -439.687)" fill="#fff"/>
    <path id="Path_768" data-name="Path 768" d="M89.985,553.932v4.861h.835a4.386,4.386,0,0,0,1.044-.1,1.859,1.859,0,0,0,.739-.388,1.955,1.955,0,0,0,.543-.8,3.427,3.427,0,0,0,.2-1.256,3.108,3.108,0,0,0-.241-1.293,1.692,1.692,0,0,0-.729-.786,2.728,2.728,0,0,0-1.317-.27c-.443,0-.8.01-1.08.033Zm0,5.565v2.782a6.433,6.433,0,0,0,.041.856,1.091,1.091,0,0,0,.123.4.658.658,0,0,0,.223.221,2.4,2.4,0,0,0,.48.192v.4H87.73v-.4a1.462,1.462,0,0,0,.615-.29.822.822,0,0,0,.2-.453,6,6,0,0,0,.049-.9v-7.079a6.512,6.512,0,0,0-.037-.823,1.079,1.079,0,0,0-.123-.4.669.669,0,0,0-.225-.229,2.392,2.392,0,0,0-.48-.192v-.4h3.66a4.051,4.051,0,0,1,2.588.7,2.619,2.619,0,0,1,.858,2.161,3.214,3.214,0,0,1-.558,1.907,3.6,3.6,0,0,1-1.675,1.227v.065a2.188,2.188,0,0,1,.772.584A5.93,5.93,0,0,1,94.092,561l.666,1.342a8.209,8.209,0,0,0,.5.9,1.926,1.926,0,0,0,.421.474,1.324,1.324,0,0,0,.57.229v.4H94.2a9.884,9.884,0,0,1-.533-.933q-.251-.5-.5-1.015l-.651-1.366a9.428,9.428,0,0,0-.484-.917,1.538,1.538,0,0,0-.347-.413.939.939,0,0,0-.341-.163,2.392,2.392,0,0,0-.543-.045h-.815Z" transform="translate(-69.813 -440.205)" fill="#fff"/>
    <path id="Path_769" data-name="Path 769" d="M140.7,553.17v2.471h-.725c-.074-.268-.151-.5-.229-.7a3.187,3.187,0,0,0-.243-.506,1.238,1.238,0,0,0-.278-.327.847.847,0,0,0-.359-.167,2.325,2.325,0,0,0-.5-.045h-2.336v4.289h1.583a1.072,1.072,0,0,0,.511-.1.773.773,0,0,0,.306-.347,3.419,3.419,0,0,0,.233-.77h.694V560.1h-.694a3.255,3.255,0,0,0-.229-.741.841.841,0,0,0-.3-.355,1.034,1.034,0,0,0-.521-.106h-1.583v4.722h2.3a2.032,2.032,0,0,0,.588-.069.9.9,0,0,0,.388-.237,1.592,1.592,0,0,0,.288-.437,4.089,4.089,0,0,0,.21-.56c.057-.194.135-.476.233-.848h.731l-.141,2.871H133.78v-.4a1.462,1.462,0,0,0,.615-.29.822.822,0,0,0,.2-.453,6,6,0,0,0,.049-.9V555.22a6.512,6.512,0,0,0-.037-.823,1.079,1.079,0,0,0-.123-.4.669.669,0,0,0-.225-.229,2.393,2.393,0,0,0-.48-.192v-.4H140.7Z" transform="translate(-106.458 -440.197)" fill="#fff"/>
    <path id="Path_770" data-name="Path 770" d="M176.851,561.3a3.59,3.59,0,0,0,.4,1.138,1.591,1.591,0,0,0,.651.619,2.3,2.3,0,0,0,1.027.2,1.721,1.721,0,0,0,1.327-.5,2.07,2.07,0,0,0,.462-1.456,2.454,2.454,0,0,0-.192-1.031,2.323,2.323,0,0,0-.629-.786,8.579,8.579,0,0,0-1.332-.86,7.338,7.338,0,0,1-1.368-.929,3.1,3.1,0,0,1-.752-.986,2.714,2.714,0,0,1-.247-1.162,3.129,3.129,0,0,1,.388-1.591,2.6,2.6,0,0,1,1.14-1.044,3.863,3.863,0,0,1,1.72-.368,9.227,9.227,0,0,1,1.1.065,8.995,8.995,0,0,1,1.342.294v2.21h-.731a3.694,3.694,0,0,0-.429-1.121,1.443,1.443,0,0,0-.607-.56,2.187,2.187,0,0,0-.9-.159,1.854,1.854,0,0,0-.862.2,1.438,1.438,0,0,0-.6.592,1.921,1.921,0,0,0-.223.946,2.055,2.055,0,0,0,.776,1.728,6.95,6.95,0,0,0,1.182.77,8.826,8.826,0,0,1,1.468.974,3.356,3.356,0,0,1,.813,1.027,2.949,2.949,0,0,1,.292,1.346,3.806,3.806,0,0,1-.245,1.452,2.519,2.519,0,0,1-.676.966,2.613,2.613,0,0,1-1.035.539,4.89,4.89,0,0,1-1.319.167,9.939,9.939,0,0,1-2.677-.433V561.3h.739Z" transform="translate(-140.143 -439.695)" fill="#fff"/>
    <path id="Path_771" data-name="Path 771" d="M210.352,553.17h8v2.847h-.725a8.391,8.391,0,0,0-.323-1.113,2.275,2.275,0,0,0-.337-.623,1.048,1.048,0,0,0-.38-.3,1.6,1.6,0,0,0-.611-.09h-.939v8.379a4.783,4.783,0,0,0,.049.77,1.356,1.356,0,0,0,.147.453.719.719,0,0,0,.27.261,2.263,2.263,0,0,0,.533.184v.4h-3.38v-.4q.221-.058.392-.123a.877.877,0,0,0,.278-.159.748.748,0,0,0,.178-.241,1.5,1.5,0,0,0,.11-.4,5.148,5.148,0,0,0,.041-.745v-8.379h-.931a1.894,1.894,0,0,0-.574.073.921.921,0,0,0-.419.306,2.284,2.284,0,0,0-.351.664,8.034,8.034,0,0,0-.3,1.084h-.731V553.17Z" transform="translate(-167.39 -440.197)" fill="#fff"/>
    <path id="Path_772" data-name="Path 772" d="M295.869,553.17v2.471h-.725c-.074-.268-.151-.5-.229-.7a3.015,3.015,0,0,0-.245-.506,1.239,1.239,0,0,0-.278-.327.847.847,0,0,0-.359-.167,2.325,2.325,0,0,0-.5-.045H291.2v4.289h1.583a1.072,1.072,0,0,0,.511-.1.773.773,0,0,0,.306-.347,3.42,3.42,0,0,0,.233-.77h.694V560.1h-.694a3.255,3.255,0,0,0-.229-.741.841.841,0,0,0-.3-.355,1.034,1.034,0,0,0-.521-.106H291.2v4.722h2.3a2.032,2.032,0,0,0,.588-.069.9.9,0,0,0,.388-.237,1.592,1.592,0,0,0,.288-.437,4.089,4.089,0,0,0,.21-.56c.057-.192.135-.476.233-.848h.731l-.141,2.871H288.95v-.4a1.462,1.462,0,0,0,.615-.29.822.822,0,0,0,.2-.453,6,6,0,0,0,.049-.9V555.22a6.512,6.512,0,0,0-.037-.823,1.078,1.078,0,0,0-.123-.4.688.688,0,0,0-.225-.229,2.392,2.392,0,0,0-.48-.192v-.4h6.915Z" transform="translate(-229.938 -440.197)" fill="#fff"/>
    <path id="Path_773" data-name="Path 773" d="M333.855,563.6a8.418,8.418,0,0,0,.872.033,4.911,4.911,0,0,0,1.109-.114,3,3,0,0,0,.888-.359,2.544,2.544,0,0,0,.717-.684,3.865,3.865,0,0,0,.517-1.007,6.349,6.349,0,0,0,.292-1.264,11.646,11.646,0,0,0,.092-1.522,7.343,7.343,0,0,0-.433-2.728,3.153,3.153,0,0,0-1.219-1.558,3.49,3.49,0,0,0-1.883-.49c-.335,0-.654.01-.954.033V563.6Zm-2.255.762v-.4a2.189,2.189,0,0,0,.488-.188.645.645,0,0,0,.229-.229,1.1,1.1,0,0,0,.118-.4,6.588,6.588,0,0,0,.037-.827v-7.079a6.6,6.6,0,0,0-.037-.831,1.042,1.042,0,0,0-.123-.4.694.694,0,0,0-.225-.225,2.41,2.41,0,0,0-.488-.192v-.4h3.239a6.516,6.516,0,0,1,2.289.339,3.9,3.9,0,0,1,1.505,1,4.216,4.216,0,0,1,.917,1.648,8.059,8.059,0,0,1,.3,2.353,9.41,9.41,0,0,1-.284,2.434,5.025,5.025,0,0,1-.831,1.763,3.94,3.94,0,0,1-1.162,1.023,4.121,4.121,0,0,1-1.317.466,11.348,11.348,0,0,1-1.981.139Z" transform="translate(-263.878 -440.213)" fill="#fff"/>
    <path id="Path_774" data-name="Path 774" d="M387.234,560.485a7.015,7.015,0,0,1-.147,1.538,3.838,3.838,0,0,1-.421,1.089,2.672,2.672,0,0,1-.643.725,2.977,2.977,0,0,1-.931.47,4.324,4.324,0,0,1-1.287.172,4.717,4.717,0,0,1-1.534-.221,2.331,2.331,0,0,1-1.058-.725,3.094,3.094,0,0,1-.6-1.187,6.836,6.836,0,0,1-.186-1.738v-5.383a6.516,6.516,0,0,0-.037-.864,1.146,1.146,0,0,0-.108-.355.646.646,0,0,0-.2-.225,1.849,1.849,0,0,0-.5-.2v-.4h3.106v.4a1.5,1.5,0,0,0-.576.257.769.769,0,0,0-.223.429,5.412,5.412,0,0,0-.059.958v5.794a5.05,5.05,0,0,0,.151,1.334,2.05,2.05,0,0,0,.425.839,1.61,1.61,0,0,0,.651.433,2.815,2.815,0,0,0,.939.135,1.979,1.979,0,0,0,.909-.2,1.676,1.676,0,0,0,.654-.609,2.634,2.634,0,0,0,.359-1.007,10.674,10.674,0,0,0,.1-1.6v-5.114a4.862,4.862,0,0,0-.063-.974.8.8,0,0,0-.206-.4,1.554,1.554,0,0,0-.6-.27v-.4H388.1v.4a1.522,1.522,0,0,0-.588.27.782.782,0,0,0-.219.425,5.269,5.269,0,0,0-.059.95v5.261Z" transform="translate(-302.059 -440.205)" fill="#fff"/>
    <path id="Path_775" data-name="Path 775" d="M433.725,552.892v2.267h-.731a3.811,3.811,0,0,0-.451-1.133,1.622,1.622,0,0,0-.635-.6,1.964,1.964,0,0,0-.872-.18,1.919,1.919,0,0,0-1.356.56,3.773,3.773,0,0,0-.935,1.685,9.481,9.481,0,0,0-.341,2.72,11.517,11.517,0,0,0,.282,2.737,3.759,3.759,0,0,0,.829,1.709,1.784,1.784,0,0,0,1.346.576,2.205,2.205,0,0,0,.991-.192,1.628,1.628,0,0,0,.647-.609,5,5,0,0,0,.5-1.227h.731v2.341a9.76,9.76,0,0,1-1.423.306,11.69,11.69,0,0,1-1.6.1,3.221,3.221,0,0,1-2.841-1.407,7.471,7.471,0,0,1-.962-4.2,8.646,8.646,0,0,1,.5-3.07,4.4,4.4,0,0,1,1.468-2.038,3.771,3.771,0,0,1,2.314-.721,9.333,9.333,0,0,1,1.242.078,9.2,9.2,0,0,1,1.3.29Z" transform="translate(-339.715 -439.679)" fill="#fff"/>
    <path id="Path_776" data-name="Path 776" d="M467.54,559.436h3.092l-1.405-5.277Zm2.841,4.419v-.4a2.248,2.248,0,0,0,.551-.18.633.633,0,0,0,.27-.274,1.047,1.047,0,0,0,.088-.47,3.391,3.391,0,0,0-.059-.6c-.039-.216-.1-.457-.17-.725l-.274-1.056h-3.445l-.251.8a8.4,8.4,0,0,0-.251.917,3.117,3.117,0,0,0-.059.564,1,1,0,0,0,.225.721,1.206,1.206,0,0,0,.692.3v.4H464.54v-.4a1.118,1.118,0,0,0,.721-.531,5.8,5.8,0,0,0,.6-1.309l3.084-9.058h1.168l2.514,9.123a9.439,9.439,0,0,0,.315.974,1.514,1.514,0,0,0,.329.523,1.17,1.17,0,0,0,.525.278v.4h-3.409Z" transform="translate(-369.668 -439.711)" fill="#fff"/>
    <path id="Path_777" data-name="Path 777" d="M508.522,553.17h8v2.847H515.8a8.386,8.386,0,0,0-.323-1.113,2.274,2.274,0,0,0-.337-.623,1.048,1.048,0,0,0-.38-.3,1.6,1.6,0,0,0-.611-.09h-.939v8.379a4.777,4.777,0,0,0,.049.77,1.355,1.355,0,0,0,.147.453.719.719,0,0,0,.27.261,2.262,2.262,0,0,0,.533.184v.4h-3.38v-.4q.221-.058.392-.123a.878.878,0,0,0,.278-.159.748.748,0,0,0,.178-.241,1.5,1.5,0,0,0,.11-.4,5.147,5.147,0,0,0,.041-.745v-8.379H510.9a1.894,1.894,0,0,0-.574.073.921.921,0,0,0-.419.306,2.284,2.284,0,0,0-.351.664,8.029,8.029,0,0,0-.3,1.084h-.731V553.17Z" transform="translate(-404.666 -440.197)" fill="#fff"/>
    <path id="Path_778" data-name="Path 778" d="M556.737,562.3a6.841,6.841,0,0,0,.033.8,1.229,1.229,0,0,0,.11.4.656.656,0,0,0,.229.245,1.954,1.954,0,0,0,.492.2v.4H554.48v-.4a1.462,1.462,0,0,0,.615-.29.822.822,0,0,0,.2-.453,6,6,0,0,0,.049-.9v-7.079a6.519,6.519,0,0,0-.037-.823,1.079,1.079,0,0,0-.123-.4.688.688,0,0,0-.225-.229,2.392,2.392,0,0,0-.48-.192v-.4H557.6v.4a1.912,1.912,0,0,0-.47.18.707.707,0,0,0-.229.225,1.1,1.1,0,0,0-.127.4,6.248,6.248,0,0,0-.041.835V562.3Z" transform="translate(-441.239 -440.205)" fill="#fff"/>
    <path id="Path_779" data-name="Path 779" d="M579.974,558.112a8.713,8.713,0,0,0,.662,3.821,2.088,2.088,0,0,0,1.934,1.309,1.858,1.858,0,0,0,1.368-.568,3.608,3.608,0,0,0,.844-1.664,10.359,10.359,0,0,0,.282-2.561,11.207,11.207,0,0,0-.329-2.957,3.629,3.629,0,0,0-.9-1.705,1.876,1.876,0,0,0-1.323-.531,1.9,1.9,0,0,0-1.142.343,2.571,2.571,0,0,0-.79.978,5.4,5.4,0,0,0-.459,1.534,12.512,12.512,0,0,0-.145,2.005Zm2.432,5.851a3.955,3.955,0,0,1-1.615-.323,3.175,3.175,0,0,1-1.25-1.007,4.982,4.982,0,0,1-.807-1.746,9.94,9.94,0,0,1-.284-2.545,8.761,8.761,0,0,1,.5-3.135,4.287,4.287,0,0,1,1.438-1.993,3.584,3.584,0,0,1,2.171-.684,3.71,3.71,0,0,1,2.216.643,3.88,3.88,0,0,1,1.354,1.891,10.369,10.369,0,0,1-.061,6.272,4.172,4.172,0,0,1-1.46,1.973,3.758,3.758,0,0,1-2.2.656Z" transform="translate(-460.314 -439.687)" fill="#fff"/>
    <path id="Path_780" data-name="Path 780" d="M632.792,559.93c.178.327.327.615.447.86s.245.521.374.827h.1q-.037-.5-.067-1.985t-.029-2.68v-1.718c0-.376-.01-.651-.029-.827a1.028,1.028,0,0,0-.108-.4.627.627,0,0,0-.214-.225,2.31,2.31,0,0,0-.478-.192v-.4h2.663v.4a2.195,2.195,0,0,0-.47.18.671.671,0,0,0-.223.212,1.047,1.047,0,0,0-.129.392,5.918,5.918,0,0,0-.045.86v9.174h-.925l-4.119-7.642q-.386-.711-.547-1.039c-.108-.219-.21-.433-.3-.647h-.127q.052.631.073,2.279t.022,3.286v1.669a6.841,6.841,0,0,0,.033.8,1.229,1.229,0,0,0,.11.4.655.655,0,0,0,.229.245,1.954,1.954,0,0,0,.492.2v.4h-2.7v-.4a1.462,1.462,0,0,0,.615-.29.822.822,0,0,0,.2-.453,6,6,0,0,0,.049-.9v-7.079a6.519,6.519,0,0,0-.037-.823,1.079,1.079,0,0,0-.123-.4.669.669,0,0,0-.225-.229,2.392,2.392,0,0,0-.48-.192v-.4h2.314l3.654,6.744Z" transform="translate(-498.805 -440.213)" fill="#fff"/>
    <path id="Path_781" data-name="Path 781" d="M710.531,561.3a3.589,3.589,0,0,0,.4,1.138,1.591,1.591,0,0,0,.651.619,2.3,2.3,0,0,0,1.027.2,1.721,1.721,0,0,0,1.328-.5,2.07,2.07,0,0,0,.462-1.456,2.454,2.454,0,0,0-.192-1.031,2.323,2.323,0,0,0-.629-.786,8.577,8.577,0,0,0-1.332-.86,7.338,7.338,0,0,1-1.368-.929,3.1,3.1,0,0,1-.752-.986,2.714,2.714,0,0,1-.247-1.162,3.129,3.129,0,0,1,.388-1.591,2.6,2.6,0,0,1,1.14-1.044,3.863,3.863,0,0,1,1.72-.368,9.227,9.227,0,0,1,1.1.065,8.994,8.994,0,0,1,1.342.294v2.21h-.731a3.694,3.694,0,0,0-.429-1.121,1.442,1.442,0,0,0-.607-.56,2.18,2.18,0,0,0-.9-.159,1.854,1.854,0,0,0-.862.2,1.438,1.438,0,0,0-.6.592,1.921,1.921,0,0,0-.223.946,2.054,2.054,0,0,0,.776,1.728,6.95,6.95,0,0,0,1.182.77,8.826,8.826,0,0,1,1.468.974,3.356,3.356,0,0,1,.813,1.027,2.949,2.949,0,0,1,.292,1.346,3.806,3.806,0,0,1-.245,1.452,2.518,2.518,0,0,1-.676.966,2.613,2.613,0,0,1-1.035.539,4.89,4.89,0,0,1-1.319.167,9.939,9.939,0,0,1-2.677-.433V561.3h.739Z" transform="translate(-564.83 -439.695)" fill="#fff"/>
    <path id="Path_782" data-name="Path 782" d="M748.364,558.112a8.713,8.713,0,0,0,.662,3.821,2.088,2.088,0,0,0,1.934,1.309,1.858,1.858,0,0,0,1.368-.568,3.608,3.608,0,0,0,.844-1.664,10.359,10.359,0,0,0,.282-2.561,11.207,11.207,0,0,0-.329-2.957,3.63,3.63,0,0,0-.9-1.705,1.876,1.876,0,0,0-1.323-.531,1.9,1.9,0,0,0-1.142.343,2.59,2.59,0,0,0-.79.978,5.461,5.461,0,0,0-.459,1.534,12.512,12.512,0,0,0-.145,2.005Zm2.432,5.851a3.955,3.955,0,0,1-1.615-.323,3.175,3.175,0,0,1-1.25-1.007,4.98,4.98,0,0,1-.807-1.746,9.94,9.94,0,0,1-.284-2.545,8.76,8.76,0,0,1,.5-3.135,4.3,4.3,0,0,1,1.438-1.993,3.584,3.584,0,0,1,2.171-.684,3.71,3.71,0,0,1,2.216.643,3.88,3.88,0,0,1,1.354,1.891,10.369,10.369,0,0,1-.061,6.272,4.172,4.172,0,0,1-1.46,1.973,3.758,3.758,0,0,1-2.2.656Z" transform="translate(-594.314 -439.687)" fill="#fff"/>
    <path id="Path_783" data-name="Path 783" d="M800.335,552.892v2.267H799.6a3.812,3.812,0,0,0-.451-1.133,1.622,1.622,0,0,0-.635-.6,1.964,1.964,0,0,0-.872-.18,1.919,1.919,0,0,0-1.356.56,3.773,3.773,0,0,0-.935,1.685,9.481,9.481,0,0,0-.341,2.72,11.518,11.518,0,0,0,.282,2.737,3.76,3.76,0,0,0,.829,1.709,1.784,1.784,0,0,0,1.346.576,2.205,2.205,0,0,0,.991-.192,1.628,1.628,0,0,0,.647-.609,5,5,0,0,0,.5-1.227h.731v2.341a9.76,9.76,0,0,1-1.423.306,11.69,11.69,0,0,1-1.6.1,3.221,3.221,0,0,1-2.841-1.407,7.471,7.471,0,0,1-.962-4.2,8.646,8.646,0,0,1,.5-3.07,4.41,4.41,0,0,1,1.468-2.038,3.771,3.771,0,0,1,2.314-.721,9.332,9.332,0,0,1,1.242.078,9.2,9.2,0,0,1,1.3.29Z" transform="translate(-631.452 -439.679)" fill="#fff"/>
    <path id="Path_784" data-name="Path 784" d="M837.547,562.3a6.844,6.844,0,0,0,.033.8,1.229,1.229,0,0,0,.11.4.656.656,0,0,0,.229.245,1.954,1.954,0,0,0,.492.2v.4H835.29v-.4a1.461,1.461,0,0,0,.615-.29.821.821,0,0,0,.2-.453,6,6,0,0,0,.049-.9v-7.079a6.519,6.519,0,0,0-.037-.823A1.079,1.079,0,0,0,836,554a.669.669,0,0,0-.225-.229,2.392,2.392,0,0,0-.48-.192v-.4h3.121v.4a1.912,1.912,0,0,0-.47.18.708.708,0,0,0-.229.225,1.1,1.1,0,0,0-.127.4,6.246,6.246,0,0,0-.041.835V562.3Z" transform="translate(-664.7 -440.205)" fill="#fff"/>
    <path id="Path_785" data-name="Path 785" d="M866.239,553.17v2.471h-.725c-.073-.268-.151-.5-.229-.7a3.01,3.01,0,0,0-.245-.506,1.238,1.238,0,0,0-.278-.327.847.847,0,0,0-.359-.167,2.326,2.326,0,0,0-.5-.045h-2.336v4.289h1.583a1.072,1.072,0,0,0,.511-.1.773.773,0,0,0,.306-.347,3.419,3.419,0,0,0,.233-.77h.694V560.1H864.2a3.251,3.251,0,0,0-.229-.741.841.841,0,0,0-.3-.355,1.034,1.034,0,0,0-.521-.106h-1.583v4.722h2.3a2.032,2.032,0,0,0,.588-.069.9.9,0,0,0,.388-.237,1.591,1.591,0,0,0,.288-.437,4.089,4.089,0,0,0,.21-.56c.057-.192.135-.476.233-.848h.731l-.141,2.871H859.32v-.4a1.462,1.462,0,0,0,.615-.29.821.821,0,0,0,.2-.453,6,6,0,0,0,.049-.9V555.22a6.507,6.507,0,0,0-.037-.823,1.079,1.079,0,0,0-.123-.4.669.669,0,0,0-.225-.229,2.4,2.4,0,0,0-.48-.192v-.4h6.915Z" transform="translate(-683.822 -440.197)" fill="#fff"/>
    <path id="Path_786" data-name="Path 786" d="M900,553.17h8v2.847h-.725a8.4,8.4,0,0,0-.323-1.113,2.274,2.274,0,0,0-.337-.623,1.048,1.048,0,0,0-.38-.3,1.6,1.6,0,0,0-.611-.09h-.939v8.379a4.784,4.784,0,0,0,.049.77,1.358,1.358,0,0,0,.147.453.72.72,0,0,0,.27.261,2.264,2.264,0,0,0,.533.184v.4h-3.38v-.4a4.107,4.107,0,0,0,.392-.123.877.877,0,0,0,.278-.159.747.747,0,0,0,.178-.241,1.5,1.5,0,0,0,.11-.4,5.148,5.148,0,0,0,.041-.745v-8.379h-.931a1.9,1.9,0,0,0-.574.073.921.921,0,0,0-.419.306,2.284,2.284,0,0,0-.351.664,8.029,8.029,0,0,0-.3,1.084H900V553.17Z" transform="translate(-716.194 -440.197)" fill="#fff"/>
    <path id="Path_787" data-name="Path 787" d="M945.679,559.668l-2.04-4.2c-.247-.506-.433-.87-.562-1.089a2.509,2.509,0,0,0-.384-.515,1.2,1.2,0,0,0-.443-.278v-.4H945.4v.4c-.464.059-.694.282-.694.664a1.651,1.651,0,0,0,.1.531,8.36,8.36,0,0,0,.359.835l1.479,3.119,1.456-2.847a7.032,7.032,0,0,0,.419-.954,2.2,2.2,0,0,0,.123-.684.64.64,0,0,0-.159-.462.742.742,0,0,0-.47-.2v-.4h2.8v.4a1.683,1.683,0,0,0-.533.339,3.129,3.129,0,0,0-.466.584c-.157.245-.39.66-.694,1.244l-2.057,3.878v2.651a4.988,4.988,0,0,0,.045.754,1.283,1.283,0,0,0,.147.458.753.753,0,0,0,.274.27,2.149,2.149,0,0,0,.533.188v.4h-3.38v-.4a2.118,2.118,0,0,0,.525-.176.722.722,0,0,0,.274-.27,1.317,1.317,0,0,0,.151-.462,4.707,4.707,0,0,0,.049-.762V559.67Z" transform="translate(-749.815 -440.213)" fill="#fff"/>
  </g>
</svg>
