<svg id="scroll-bottom-icon" xmlns="http://www.w3.org/2000/svg" width="24.574" height="47.166" viewBox="0 0 24.574 47.166">
  <path id="scroll-bottom-icon-2" data-name="scroll-bottom-icon" d="M12.287,0a12.255,12.255,0,0,1,8.675,3.609l.006.006a12.247,12.247,0,0,1,3.607,8.672V26.205a12.253,12.253,0,0,1-3.609,8.674l-.006.006a12.23,12.23,0,0,1-17.347,0l-.006-.006A12.251,12.251,0,0,1,0,26.205V12.287A12.257,12.257,0,0,1,3.609,3.613l.006-.006A12.255,12.255,0,0,1,12.287,0ZM9.092,41.171l3.194,3.2,3.2-3.2,1.4,1.4-4.6,4.593L7.69,42.573l1.4-1.4Zm3.195-12.047a2.1,2.1,0,0,0,2.093-2.092V24.239a2.092,2.092,0,1,0-4.185,0v2.792A2.1,2.1,0,0,0,12.287,29.124Zm0-27.139a10.329,10.329,0,0,0-10.3,10.3V26.205a10.3,10.3,0,0,0,20.606,0V12.287a10.329,10.329,0,0,0-10.3-10.3Z" fill="#fff"/>
</svg>
