<svg xmlns="http://www.w3.org/2000/svg" width="1580.795" height="144.497" viewBox="0 0 1580.795 144.497">
  <path id="Union_2" data-name="Union 2" d="M24063.2,10877.5H22619v-91.55a277.816,277.816,0,0,0,35.334,2.375,157.116,157.116,0,0,0,33.27-3.1c6.7-1.464,16.436-5.09,29.754-11.1,11.666-5.26,24.529-11.631,36.969-17.789l.023-.012.207-.1.012-.006h.006l.115-.055c12.25-6.067,23.82-11.8,33.439-16.083,10.854-4.828,17.564-7.081,21.117-7.081a5.5,5.5,0,0,1,1.125.1c5.471,1.1,14.654,5.946,25.283,11.558l.006.007.1.048.041.024.068.03c7.031,3.717,14.994,7.926,23.072,11.674a152.467,152.467,0,0,0,24.4,9.243c9.432,2.521,24.645,5.387,42.252,8.709l.055.013.176.03c16.66,3.14,35.547,6.7,51.648,10.446,18.523,4.3,30.518,8.181,36.67,11.861a57.429,57.429,0,0,0,18.477,7.451,89.149,89.149,0,0,0,18.463,1.458c1.822,0,3.637-.012,5.557-.03l.334-.006.236-.007.51-.006c1.756-.012,3.943-.036,6.111-.036,5.016,0,9.3.1,13.477.328.668.036,1.385.055,2.119.055,6.42,0,14.381-1.391,24.336-4.252,9.5-2.727,19.49-6.437,27.123-9.358,3.189-1.215,6.438-2.479,9.049-3.5l.1-.036.068-.03c13.828-5.387,25.775-10.039,31.465-10.039a8.065,8.065,0,0,1,.941.049c7.125.777,17.127,3.851,27.719,7.111,7.35,2.266,14.953,4.6,22.369,6.414,8.326,2.046,14.977,3.036,20.32,3.036a28.257,28.257,0,0,0,8.752-1.208c.34-.109.674-.226,1.008-.335.184-.054.359-.115.541-.176s.389-.127.584-.188l.418-.14.141-.048c11.295-3.724,17.516-5.776,25.994-7.271,8.75-1.549,19.854-2.453,38.57-3.674,23.158-1.543,35.105-4.78,45.643-7.635l.041-.006c7.914-2.149,14.746-4,24.785-4.694,5.5-.4,12.566-.668,20.055-.954l.086-.006h.1c25.975-1,61.541-2.375,81.17-9.9,10.033-3.845,19.039-7.239,27.566-9.809a121.85,121.85,0,0,1,12.311-3.1,59.592,59.592,0,0,1,11.023-1.147,28.554,28.554,0,0,1,11.77,2.2c1.105.5,2.467,1.118,4.555,2.065l.014.006c8.7,3.954,21.857,9.93,36.148,15.178,7.865,2.885,15.164,5.2,21.7,6.887a105.268,105.268,0,0,0,20.328,3.462c12.99.7,27.67,3.292,43.625,7.7,7.184,1.979,14.68,4.36,22.289,7.069,7.094,2.532,14.314,5.375,21.463,8.442a273.263,273.263,0,0,0,44.207,14.466c7.441,1.768,14.795,3.226,21.871,4.331,7.039,1.1,13.652,1.828,19.666,2.168,4.822.273,10.209.31,14.836.31,2.012,0,4.059-.006,6.262-.019h.408l1.621-.006h.461c1.506-.006,3.068-.012,4.658-.012,9.99,0,21.895.151,34.389,1.306a204.225,204.225,0,0,1,38.42,7.063c13.67,3.941,23.211,6.4,30.938,7.986a95,95,0,0,0,19.33,2.289,85.141,85.141,0,0,0,16.424-1.815,74,74,0,0,1,14.162-1.415c8.557,0,15.48,1.615,22.174,3.183l.049.006c1.154.273,2.211.517,3.141.729,4.676,1.1,13.811,2.852,23.055,4.552,2.746.222,15.145,1.176,27.438,1.176a141,141,0,0,0,16.848-.838c8.188-1.026,12.488-3.547,17.936-6.735l.006-.007a93.049,93.049,0,0,1,17.479-8.375,74.336,74.336,0,0,0,20.467-10.956,114.551,114.551,0,0,0,13.363-12.463l.012-.012c9.936-10.361,18.518-19.313,41.492-19.313,1.094,0,2.217.019,3.328.055a8.853,8.853,0,0,1,1.756.225v91.55Z" transform="translate(-22619 -10732.999)" fill="#fff"/>
</svg>
